<?xml version="1.0" encoding="utf-8"?>
<!-- Generator: Adobe Illustrator 19.2.1, SVG Export Plug-In . SVG Version: 6.00 Build 0)  -->
<svg version="1.1" id="Layer_1" xmlns="http://www.w3.org/2000/svg" xmlns:xlink="http://www.w3.org/1999/xlink" x="0px" y="0px"
	 viewBox="0 0 16 20" style="enable-background:new 0 0 16 20;" xml:space="preserve">
<style type="text/css">
	.st0{fill:none;enable-background:new    ;}
</style>
<path class="st0" d="z"/>
<g>
	<path d="M13.4,17.4c0,0.7-0.6,1.3-1.3,1.3H3.8c-0.7,0-1.3-0.6-1.3-1.3V5.1H1.3v12.4c0,1.4,1.2,2.6,2.6,2.6h8.3
		c1.4,0,2.6-1.2,2.6-2.6V5.1h-1.3V17.4z"/>
	<path d="M3.8,7h0.6v8.5H3.8V7z M5.7,7h0.6v8.5H5.7V7z M7.7,7h0.6v8.5H7.7V7z M9.6,7h0.6v8.5H9.6V7z M11.5,7h0.6v8.5h-0.6V7z"/>
</g>
<path d="M15.4,2.7H9.6V2c0-0.4-0.3-0.6-0.6-0.6H7C6.6,1.4,6.4,1.7,6.4,2v0.6H0.6C0.3,2.7,0,3,0,3.3S0.3,4,0.6,4h14.7
	C15.7,4,16,3.7,16,3.3S15.7,2.7,15.4,2.7z"/>
</svg>
