<?xml version="1.0" encoding="utf-8"?>
<!-- Generator: Adobe Illustrator 19.2.1, SVG Export Plug-In . SVG Version: 6.00 Build 0)  -->
<svg version="1.1" id="Layer_1" xmlns="http://www.w3.org/2000/svg" xmlns:xlink="http://www.w3.org/1999/xlink" x="0px" y="0px"
	 viewBox="0 0 33.2 31" style="enable-background:new 0 0 33.2 31;" xml:space="preserve">
<style type="text/css">
	.st0{fill:#02B8F8;}
	.st1{fill:#2659EA;}
</style>
<rect x="10" y="4" class="st0" width="22.9" height="1.6"/>
<rect x="10" y="14.1" class="st0" width="22.9" height="1.6"/>
<rect x="10" y="24.1" class="st0" width="22.9" height="1.6"/>
<rect x="1.1" y="14.1" class="st0" width="5.2" height="1.6"/>
<rect x="1.1" y="24.1" class="st0" width="5.2" height="1.6"/>
<path class="st1" d="M0,0"/>
<path class="st0" d="M3.3,7C3.2,7,3,7,2.9,6.9l-2.3-2C0.3,4.7,0.1,4.2,0.4,3.8c0.2-0.4,0.7-0.5,1.1-0.3l0,0l1.9,1.7l3.9-3.5
	c0.3-0.2,0.8-0.1,1,0.3l0,0C8.5,2.4,8.4,2.9,8,3.2L3.7,6.9C3.6,6.9,3.5,7,3.3,7z"/>
</svg>
