<?xml version="1.0" encoding="utf-8"?>
<!-- Generator: Adobe Illustrator 19.2.1, SVG Export Plug-In . SVG Version: 6.00 Build 0)  -->
<svg version="1.1" id="camera" xmlns="http://www.w3.org/2000/svg" xmlns:xlink="http://www.w3.org/1999/xlink" x="0px" y="0px"
	 viewBox="0 0 81 62" style="enable-background:new 0 0 81 62;" xml:space="preserve">
<style type="text/css">
	.st0{fill:#FFFFFF;}
</style>
<g id="Rounded_Rectangle_2">
	<path class="st0" d="M75,62H6c-3.3,0-6-2.7-6-6V11c0-3.3,2.7-6,6-6h69c3.3,0,6,2.7,6,6v45C81,59.3,78.3,62,75,62z M6,7
		c-2.2,0-4,1.8-4,4v45c0,2.2,1.8,4,4,4h69c2.2,0,4-1.8,4-4V11c0-2.2-1.8-4-4-4H6z"/>
</g>
<path class="st0" d="M62,3V1h12v2H62z"/>
<path class="st0" d="M6,12h1v43H6V12z"/>
<g id="Ellipse_9_copy">
	<path class="st0" d="M40,55c-12.1,0-22-9.9-22-22s9.9-22,22-22s22,9.9,22,22S52.1,55,40,55z M40,13c-11,0-20,9-20,20
		c0,11,9,20,20,20c11,0,20-9,20-20C60,22,51,13,40,13z"/>
</g>
<g>
	<path class="st0" d="M67.5,17.5c-1.7,0-3-1.3-3-3s1.3-3,3-3s3,1.3,3,3S69.2,17.5,67.5,17.5z M67.5,12.5c-1.1,0-2,0.9-2,2s0.9,2,2,2
		s2-0.9,2-2S68.6,12.5,67.5,12.5z"/>
</g>
<g>
	<path class="st0" d="M30.8,44.9C27.1,42,25,37.8,25,33.1c0-4.7,2.3-9.1,6-11.9l0.6,0.8c-3.5,2.6-5.6,6.8-5.6,11.1
		c0,4.3,2,8.3,5.4,11L30.8,44.9z"/>
</g>
</svg>
