<?xml version="1.0" encoding="utf-8"?>
<!-- Generator: Adobe Illustrator 19.2.1, SVG Export Plug-In . SVG Version: 6.00 Build 0)  -->
<svg version="1.1" id="Layer_1" xmlns="http://www.w3.org/2000/svg" xmlns:xlink="http://www.w3.org/1999/xlink" x="0px" y="0px"
	 viewBox="0 0 60 42" style="enable-background:new 0 0 60 42;" xml:space="preserve">
<style type="text/css">
	.st0{fill:none;enable-background:new    ;}
</style>
<path class="st0" d="z"/>
<path d="M8.3,2C8.1,2,8,2.2,8,2.3v31.9c0,0.2,0.2,0.3,0.3,0.3h45.2c0.2,0,0.3-0.2,0.3-0.3V2.3c0-0.2-0.2-0.3-0.3-0.3H8.3z
	 M53.5,36.6H8.3c-1.3,0-2.3-1-2.3-2.3V2.3C6,1.1,7,0,8.3,0h45.2c1.3,0,2.3,1,2.3,2.3v31.9C55.8,35.5,54.8,36.6,53.5,36.6z"/>
<path d="M59,41.3H2.8c-0.5,0-1-0.4-1-1c0-0.5,0.4-1,1-1H59c0.5,0,1,0.4,1,1C60,40.9,59.6,41.3,59,41.3z"/>
<path d="M11.5,26.1V10.5c0-0.5,0.4-1,1-1s1,0.4,1,1v15.6c0,0.5-0.4,1-1,1C12,27.1,11.5,26.7,11.5,26.1z"/>
<path d="M30.9,5.9c-0.6,0-1.1,0.5-1.1,1.1s0.5,1.1,1.1,1.1c0.6,0,1.1-0.5,1.1-1.1S31.6,5.9,30.9,5.9z M30.9,9.8
	c-1.5,0-2.7-1.2-2.7-2.7c0-1.5,1.2-2.7,2.7-2.7c1.5,0,2.7,1.2,2.7,2.7C33.7,8.5,32.4,9.8,30.9,9.8z"/>
</svg>
