<?xml version="1.0" encoding="utf-8"?>
<!-- Generator: Adobe Illustrator 19.2.1, SVG Export Plug-In . SVG Version: 6.00 Build 0)  -->
<svg version="1.1" id="Layer_1" xmlns="http://www.w3.org/2000/svg" xmlns:xlink="http://www.w3.org/1999/xlink" x="0px" y="0px"
	 viewBox="0 0 25 29" style="enable-background:new 0 0 25 29;" xml:space="preserve">
<style type="text/css">
	.st0{fill:#B6B6B6;}
</style>
<g>
	<path class="st0" d="M21,25c0,1.1-0.9,2-2,2H6c-1.1,0-2-0.9-2-2V5.7H2V25c0,2.2,1.8,4,4,4h13c2.2,0,4-1.8,4-4V5.7h-2V25z"/>
	<path class="st0" d="M6,8.8h1V22H6V8.8z M9,8.8h1V22H9V8.8z M12,8.8h1V22h-1V8.8z M15,8.8h1V22h-1V8.8z M18,8.8h1V22h-1V8.8z"/>
</g>
<path class="st0" d="M24,2h-9V1c0-0.6-0.5-1-1-1h-3c-0.6,0-1,0.5-1,1v1H1C0.5,2,0,2.5,0,3s0.5,1,1,1h23c0.5,0,1-0.5,1-1S24.5,2,24,2
	z"/>
</svg>
