<?xml version="1.0" encoding="utf-8"?>
<!-- Generator: Adobe Illustrator 19.2.1, SVG Export Plug-In . SVG Version: 6.00 Build 0)  -->
<svg version="1.1" id="Layer_1" xmlns="http://www.w3.org/2000/svg" xmlns:xlink="http://www.w3.org/1999/xlink" x="0px" y="0px"
	 viewBox="0 0 34.1 34" style="enable-background:new 0 0 34.1 34;" xml:space="preserve">
<style type="text/css">
	.st0{fill:#2C2C2C;}
</style>
<path class="st0" d="M33.4,9.6L17.7,0.1c-0.4-0.2-0.8-0.2-1.2,0L0.7,9.8C0.5,9.9,0.4,10,0.3,10.2c-0.3,0.6-0.1,1.3,0.4,1.6l15.8,9.2
	c0.2,0.1,0.4,0.2,0.6,0.2c0.2,0,0.4-0.1,0.6-0.2l15.8-9.3c0.2-0.1,0.3-0.2,0.4-0.4C34.1,10.7,34,10,33.4,9.6z M17,19.4L2.1,10.8
	l15-9.1l14.9,9L17,19.4z"/>
<path class="st0" d="M17,27.1c-0.1,0-0.3,0-0.4-0.1L0.6,17.6c-0.4-0.2-0.5-0.7-0.3-1.1c0.2-0.4,0.7-0.5,1.1-0.3c0,0,0,0,0,0L17,25.3
	L32.8,16c0.4-0.2,0.9-0.1,1.1,0.3c0,0,0,0,0,0c0.2,0.4,0.1,0.9-0.3,1.1L17.4,27C17.3,27.1,17.2,27.1,17,27.1z"/>
<path class="st0" d="M17,33.1c-0.1,0-0.3,0-0.4-0.1L0.6,23.7c-0.4-0.2-0.5-0.7-0.3-1.1c0.2-0.4,0.7-0.5,1.1-0.3c0,0,0,0,0,0L17,31.4
	l15.7-9.3c0.4-0.2,0.9-0.1,1.1,0.3c0,0,0,0,0,0c0.2,0.4,0.1,0.9-0.3,1.1L17.4,33C17.3,33.1,17.2,33.1,17,33.1z"/>
</svg>
