<?xml version="1.0" encoding="utf-8"?>
<!-- Generator: Adobe Illustrator 19.2.1, SVG Export Plug-In . SVG Version: 6.00 Build 0)  -->
<svg version="1.1" id="Layer_1" xmlns="http://www.w3.org/2000/svg" xmlns:xlink="http://www.w3.org/1999/xlink" x="0px" y="0px"
	 viewBox="0 0 44 44" style="enable-background:new 0 0 44 44;" xml:space="preserve">
<style type="text/css">
	.st0{fill:#D74141;}
</style>
<g>
	<path class="st0" d="M22.4,43.7C10.4,43.7,0.7,33.9,0.7,22S10.4,0.3,22.4,0.3S44.1,10.1,44.1,22S34.3,43.7,22.4,43.7z M22.4,1.9
		c-11.1,0-20.1,9-20.1,20.1c0,11.1,9,20.1,20.1,20.1s20.1-9,20.1-20.1C42.5,10.9,33.5,1.9,22.4,1.9z"/>
</g>
<polygon class="st0" points="29.8,15.7 28.6,14.5 22.5,20.7 16.4,14.5 15.1,15.7 21.3,21.9 15.1,28 16.4,29.2 22.5,23.1 28.6,29.2 
	29.8,28 23.7,21.9 "/>
</svg>
