<?xml version="1.0" encoding="utf-8"?>
<!-- Generator: Adobe Illustrator 19.2.1, SVG Export Plug-In . SVG Version: 6.00 Build 0)  -->
<svg version="1.1" id="Layer_1" xmlns="http://www.w3.org/2000/svg" xmlns:xlink="http://www.w3.org/1999/xlink" x="0px" y="0px"
	 viewBox="0 0 20 18" style="enable-background:new 0 0 20 18;" xml:space="preserve">
<style type="text/css">
	.st0{fill:none;enable-background:new    ;}
	.st1{fill:#010002;}
</style>
<path class="st0" d="z"/>
<g>
	<path class="st1" d="M9,18c-4.9,0-9-4-9-9c0-4.9,4-9,9-9c4.9,0,9,4,9,9c0,0.3-0.2,0.5-0.5,0.5c-0.3,0-0.5-0.2-0.5-0.5
		c0-4.4-3.6-7.9-7.9-7.9C4.6,1.1,1,4.6,1,9c0,4.4,3.6,7.9,7.9,7.9c2.8,0,5.4-1.5,6.8-3.9c0.1-0.2,0.5-0.3,0.7-0.2
		c0.2,0.1,0.3,0.5,0.2,0.7C15.1,16.3,12.1,18,9,18L9,18z M9,18"/>
	<path class="st1" d="M17.4,9.5c-0.1,0-0.2,0-0.3-0.1l-3.2-1.9c-0.2-0.1-0.3-0.5-0.2-0.7c0.1-0.2,0.5-0.3,0.7-0.2l2.8,1.7l1.8-2.6
		c0.2-0.2,0.5-0.3,0.7-0.1c0.2,0.2,0.3,0.5,0.1,0.7l-2.1,3C17.7,9.4,17.6,9.5,17.4,9.5L17.4,9.5z M17.4,9.5"/>
</g>
</svg>
