<?xml version="1.0" encoding="utf-8"?>
<!-- Generator: Adobe Illustrator 19.2.1, SVG Export Plug-In . SVG Version: 6.00 Build 0)  -->
<svg version="1.1" id="Layer_1" xmlns="http://www.w3.org/2000/svg" xmlns:xlink="http://www.w3.org/1999/xlink" x="0px" y="0px"
	 viewBox="0 0 56.4 56" style="enable-background:new 0 0 56.4 56;" xml:space="preserve">
<style type="text/css">
	.st0{fill:none;enable-background:new    ;}
</style>
<path class="st0" d="M0,0"/>
<g>
	<path d="M52.2,28.7c0.1-0.6,0.2-1.1,0.5-1.6c-0.6,0-1.1-0.2-1.7-0.4c-0.7-0.3-1.3-0.5-2.1-0.6c-0.9-0.1-1.9-0.1-3,0.3
		c1.7,2,3,4.3,3.9,6.8c0.9-0.7,1.4-1.6,1.7-2.4C51.9,30.1,52,29.4,52.2,28.7z"/>
	<path d="M43.3,20.5c-0.1-0.7-0.3-1.4-0.6-2.1c-0.2-0.6-0.4-1.1-0.4-1.7c-0.5,0.3-1,0.4-1.6,0.5c-0.7,0.1-1.4,0.2-2.1,0.5
		c-0.8,0.3-1.7,0.8-2.4,1.7c2.5,0.9,4.8,2.3,6.8,3.9C43.5,22.4,43.5,21.3,43.3,20.5z"/>
	<path d="M55.2,40c-0.5-0.6-0.9-1.1-1.5-1.5c-0.7-0.5-1.5-1.1-2.7-1.2c0.2,1.3,0.3,2.6,0.3,3.9h5.1C55.9,40.9,55.6,40.5,55.2,40z"/>
	<path d="M20.2,19.5c-0.7-0.9-1.6-1.4-2.4-1.7c-0.7-0.2-1.4-0.4-2.1-0.5c-0.6-0.1-1.1-0.2-1.6-0.5c0,0.6-0.2,1.1-0.4,1.7
		c-0.3,0.7-0.5,1.3-0.6,2.1c-0.1,0.9-0.1,1.9,0.3,3C15.4,21.7,17.7,20.4,20.2,19.5z"/>
	<path d="M7.5,26.1c-0.7,0.1-1.4,0.3-2.1,0.6c-0.6,0.2-1.1,0.4-1.7,0.4c0.3,0.5,0.4,1,0.5,1.6c0.1,0.7,0.2,1.4,0.5,2.1
		c0.3,0.8,0.8,1.7,1.7,2.4c0.9-2.5,2.3-4.8,3.9-6.8C9.4,26,8.4,26,7.5,26.1z"/>
	<path d="M1.2,40c-0.4,0.5-0.7,0.9-1.3,1.1l5.1,0c0-1.4,0.1-2.7,0.3-3.9c-1.1,0.2-2,0.7-2.7,1.2C2.1,38.9,1.7,39.5,1.2,40z"/>
	<path d="M32.2,18.4c-0.2-1.1-0.7-2-1.2-2.7c-0.5-0.6-1-1-1.5-1.5c-0.5-0.4-0.9-0.7-1.1-1.3c-0.3,0.5-0.7,0.9-1.2,1.3
		c-0.6,0.5-1.1,0.9-1.5,1.5c-0.5,0.7-1.1,1.6-1.2,2.7c1.3-0.2,2.6-0.3,3.9-0.3C29.6,18,30.9,18.1,32.2,18.4z"/>
	<path d="M23.6,38.9c-1.3,0.2-2.6,1.5-3.4,2.3l2.3,0c0.3-0.2,0.8-0.4,1-0.2c0.1,0.1,0.1,0.1,0.1,0.2h1.7
		C25.5,39.7,25,38.6,23.6,38.9z"/>
	<path d="M26.8,29.8c-3.4-0.5-6.8,0.9-9.7,3c-3.2,2.2-5.8,5.3-8,8.4H12c2.6-3.7,8.5-9.2,12.9-9.3c1.4,0,2.8,0.3,3.9,1.3
		c0.8,0.7,1.7,2,1.6,3.1c0,0.6-0.6,0.8-1.1,0.6c-0.4-0.2-0.7-0.5-1-0.9c-1-1.3-2.4-1.9-4.1-1.7c-1.9,0.3-4.3,1.8-5.9,3.1
		c-1.3,1.2-2.6,2.5-3.7,3.8h3.1c1.1-1.4,2.3-2.5,3.9-3.5c0.5-0.3,1.1-0.6,1.7-0.8c1.6-0.5,3.2-0.4,3.9,1.6c0.3,0.8,0.3,1.5,0.2,2.7
		v0.1h2.1v-0.1c0-0.7,0-1.1,0.1-1.8c0.1-0.6,0.2-1.2,0.8-1.3c1.1-0.2,1.1,2.3,1.1,3.2h2.2c0.1-2.6-0.3-5.2-1.5-7.5
		C30.9,31.6,29.1,30.2,26.8,29.8z"/>
	<path d="M36.6,32.1c-0.5-1.1-1.1-2-1.8-2.9c-0.8-1-1.8-1.9-2.9-2.6c-0.3-0.2-0.7-0.4-1-0.6s-0.7-0.3-1.1-0.5
		c-4.3-1.5-8.6-0.4-12.2,1.5c-0.7,0.4-1.4,0.8-2,1.2c-0.6,0.4-1.3,0.9-1.8,1.4c-0.7,0.6-1.5,1.3-2.4,2.2c-0.2,0.2-0.3,0.4-0.5,0.5
		c-0.5,0.5-1.1,1.2-0.9,1.9c0.2,0.6,0.9,0.4,1.1,0.2c0.4-0.2,0.8-0.5,1.2-0.9c0.5-0.4,1-0.9,1.4-1.3c2-1.7,4-3,6.1-3.9
		c0.4-0.2,0.9-0.4,1.3-0.5c0.4-0.2,0.9-0.3,1.3-0.4c3.8-1,7.9-0.3,10.5,2.7c2.5,3,3,6.9,3,10.9H38c0.1-2.4-0.1-5.2-0.9-7.7
		C37,33,36.8,32.6,36.6,32.1z"/>
	<path d="M9.6,35.8c-0.1-0.1-0.1-0.2-0.2-0.3c-0.1-0.1-0.2-0.1-0.3-0.2c-0.3-0.1-0.6,0-0.9,0.4c-0.3,0.4-0.8,1.1-0.9,1.7
		c0,0.1,0,0.2,0,0.3c0,0.1,0,0.2,0.1,0.3c0.1,0.1,0.2,0.2,0.4,0.2c0,0,0.1,0,0.1,0s0.1,0,0.1,0c0.2-0.1,0.5-0.2,0.7-0.4
		c0.2-0.2,0.5-0.5,0.7-0.8C9.7,36.6,9.7,36.1,9.6,35.8z"/>
	<path d="M35.5,23.7c-0.7-0.5-1.5-1-2.2-1.4h0c-2.7-1.4-5.7-1.9-8.6-1.6c-0.6,0.1-1.1,0.1-1.7,0.2c-0.6,0.1-1.1,0.2-1.7,0.4
		c-3,0.9-5.9,2.7-8.2,5c-0.5,0.5-0.9,0.9-1.3,1.4c-0.2,0.2-0.4,0.5-0.6,0.7c1.6-1.4,3.4-2.6,5.2-3.6c0.4-0.2,0.8-0.4,1.2-0.6
		c0.4-0.2,0.8-0.4,1.3-0.5c1.6-0.6,3.2-1,4.8-1.2c1.6-0.2,3.2-0.1,4.8,0.1c1.1,0.2,2.3,0.5,3.3,0.9c0.2,0.1,0.4,0.2,0.6,0.3
		c0.2,0.1,0.4,0.2,0.5,0.3c3.5,1.9,6,5.9,7.1,10.4c0.2,0.9,0.4,1.8,0.5,2.7c0.1,0.9,0.2,1.8,0.2,2.7V40c0,0.5,0.2,0.9,0.5,1.1
		c0.1,0,0.1,0.1,0.2,0.1c0.1,0.1,0.1,0.1,0.2,0.1h0c0.2,0,0.6-0.1,0.9-0.5c0.1-0.1,0.1-0.2,0.1-0.3c0-0.1,0.1-0.2,0.1-0.3v0
		c0.2-6.1-1.7-11.1-4.9-14.6C36.9,24.8,36.2,24.2,35.5,23.7z"/>
	<path d="M35,20.9c7.2,4.6,10.8,12,10.5,20.3h4.2C49.6,31.7,43.5,23.7,35,20.9z"/>
</g>
</svg>
