<?xml version="1.0" encoding="utf-8"?>
<!-- Generator: Adobe Illustrator 19.2.1, SVG Export Plug-In . SVG Version: 6.00 Build 0)  -->
<svg version="1.1" id="Layer_1" xmlns="http://www.w3.org/2000/svg" xmlns:xlink="http://www.w3.org/1999/xlink" x="0px" y="0px"
	 viewBox="0 0 79.7 79.7" style="enable-background:new 0 0 79.7 79.7;" xml:space="preserve">
<style type="text/css">
	.st0{fill:none;stroke:#D51717;stroke-width:2;stroke-linecap:round;}
	.st1{fill:none;stroke:#D51717;stroke-miterlimit:10;}
	.st2{fill:none;stroke:#D51717;stroke-linecap:round;}
</style>
<g id="ico_po_warning_red">
	<path class="st0" d="M39.3,15.9v26.7"/>
	<path id="Shape_34_copy" class="st0" d="M39.3,62.3V53"/>
	<g transform="translate(-475.156 -234.156)">
		<path id="path" class="st1" d="M514.4,235.2c21.5,0,39.4,17.8,39.4,39.2c0,10.4-4.7,19.5-11.4,26.5c-7.3,7.6-17.4,11.9-28,11.9
			c-21,0.1-38.1-16.8-38.3-37.8c0-0.2,0-0.5,0-0.7C476.2,252.9,493,235.2,514.4,235.2z"/>
	</g>
	<g transform="translate(-475.156 -234.156)">
		<path id="path_1_" class="st0" d="M39.3,1c21.5,0,39.4,17.8,39.4,39.2c0,10.4-4.7,19.5-11.4,26.5c-7.3,7.6-17.4,11.9-28,11.9
			C18.3,78.8,1.1,61.9,1,40.9c0-0.2,0-0.5,0-0.7C1,18.8,17.8,1,39.3,1z"/>
	</g>
	<path id="Ellipse_8_copy" class="st2" d="M16.1,61.1c-6-5.6-9.3-11.6-9.3-20.9c-0.1-8.7,3.2-17,9.3-23.2"/>
</g>
</svg>
