<?xml version="1.0" encoding="utf-8"?>
<!-- Generator: Adobe Illustrator 19.2.1, SVG Export Plug-In . SVG Version: 6.00 Build 0)  -->
<svg version="1.1" id="Layer_1" xmlns="http://www.w3.org/2000/svg" xmlns:xlink="http://www.w3.org/1999/xlink" x="0px" y="0px"
	 viewBox="0 0 32 24" style="enable-background:new 0 0 32 24;" xml:space="preserve">
<style type="text/css">
	.st0{fill:#2D92C7;}
</style>
<g>
	<g id="Rounded_Rectangle_2_1_">
		<path class="st0" d="M26,24H9.9c-3.3,0-6-2.7-6-6V9.9c0-3.3,2.7-6,6-6H26c3.3,0,6,2.7,6,6V18C32,21.3,29.3,24,26,24z M9.9,5.9
			c-2.2,0-4,1.8-4,4V18c0,2.2,1.8,4,4,4H26c2.2,0,4-1.8,4-4V9.9c0-2.2-1.8-4-4-4H9.9z"/>
	</g>
</g>
<g>
	<path class="st0" d="M2.8,17.6v-1.1C2.3,15.8,2,15,2,14.1V6c0-2.2,1.8-4,4-4h16.1c0.8,0,1.6,0.3,2.3,0.7h2.2c0.2,0,0.3,0,0.5,0
		C26,1.1,24.2,0,22.1,0H6C2.7,0,0,2.7,0,6v8.1c0,2.2,1.2,4.2,3,5.2C2.9,18.8,2.8,18.2,2.8,17.6z"/>
</g>
</svg>
