<?xml version="1.0" encoding="utf-8"?>
<!-- Generator: Adobe Illustrator 19.2.1, SVG Export Plug-In . SVG Version: 6.00 Build 0)  -->
<svg version="1.1" id="Layer_1" xmlns="http://www.w3.org/2000/svg" xmlns:xlink="http://www.w3.org/1999/xlink" x="0px" y="0px"
	 viewBox="0 0 40 40" style="enable-background:new 0 0 40 40;" xml:space="preserve">
<style type="text/css">
	.st0{fill:#101010;}
	.st1{fill:#D7D7D7;}
	.st2{fill:#FFFFFF;}
</style>
<g>
	<g>
		<path class="st0" d="M20,2C10.1,2,2,10.1,2,20s8.1,18,18,18s18-8.1,18-18S29.9,2,20,2z"/>
		<path class="st1" d="M20,0C9,0,0,9,0,20s9,20,20,20s20-9,20-20S31,0,20,0z M20,38c-9.9,0-18-8.1-18-18S10.1,2,20,2s18,8.1,18,18
			S29.9,38,20,38z"/>
	</g>
	<path class="st2" d="M21.4,20l2.3-2.3c0.4-0.4,0.4-1,0-1.4s-1-0.4-1.4,0L20,18.6l-2.3-2.3c-0.4-0.4-1-0.4-1.4,0
		c-0.4,0.4-0.4,1,0,1.4l2.3,2.3l-2.3,2.3c-0.4,0.4-0.4,1,0,1.4c0.2,0.2,0.5,0.3,0.7,0.3s0.5-0.1,0.7-0.3l2.3-2.3l2.3,2.3
		c0.2,0.2,0.5,0.3,0.7,0.3s0.5-0.1,0.7-0.3c0.4-0.4,0.4-1,0-1.4L21.4,20z"/>
</g>
</svg>
