<?xml version="1.0" encoding="utf-8"?>
<!-- Generator: Adobe Illustrator 19.2.1, SVG Export Plug-In . SVG Version: 6.00 Build 0)  -->
<svg version="1.1" id="Layer_1" xmlns="http://www.w3.org/2000/svg" xmlns:xlink="http://www.w3.org/1999/xlink" x="0px" y="0px"
	 viewBox="0 0 24 33" style="enable-background:new 0 0 24 33;" xml:space="preserve">
<style type="text/css">
	.st0{fill:#B6B6B6;}
</style>
<g>
	<path class="st0" d="M23,0H1C0.4,0,0,0.4,0,1s0.4,1,1,1h22c0.5,0,1-0.5,1-1S23.5,0,23,0z M12,5.6l-9.7,9.7c-0.4,0.4-0.4,1,0,1.4
		s1,0.4,1.4,0L11,9.4V32c0,0.5,0.4,1,1,1s1-0.5,1-1V9.4l7.3,7.3c0.2,0.2,0.5,0.3,0.7,0.3s0.5-0.1,0.7-0.3c0.4-0.4,0.4-1,0-1.4
		L12,5.6z"/>
</g>
</svg>
