<?xml version="1.0" encoding="utf-8"?>
<!-- Generator: Adobe Illustrator 19.2.1, SVG Export Plug-In . SVG Version: 6.00 Build 0)  -->
<svg version="1.1" id="Layer_1" xmlns="http://www.w3.org/2000/svg" xmlns:xlink="http://www.w3.org/1999/xlink" x="0px" y="0px"
	 viewBox="0 0 33 33" style="enable-background:new 0 0 33 33;" xml:space="preserve">
<style type="text/css">
	.st0{fill:#DADADA;}
</style>
<g>
	<path class="st0" d="M32.8,33h-1.5c0-3-5.3-5.9-9.8-7.5c-0.8-0.3-1.3-0.9-1.6-1.8c-0.3-1.1,0-2.5,0.7-3.4c2.6-2.9,4-8.1,3.4-12
		c-0.3-1.7-1.1-4.1-3.5-5.5C18.9,2,17.1,1.7,15.2,2c-2.8,0.5-4.7,2-5.6,4.5c-1.6,4.5,0.2,10.8,2.9,14c0.7,0.8,0.9,1.9,0.7,2.9
		c-0.2,1-0.9,1.8-1.9,2.2c-2.6,1.1-9.5,4.1-9.5,7.5H0.3c0-4.4,7-7.4,10.4-8.8c0.6-0.3,1-0.6,1.1-1.2c0.1-0.6-0.1-1.2-0.4-1.6
		C8.4,18,6.4,10.9,8.2,6c1.1-3,3.5-4.9,6.8-5.5c2.3-0.4,4.4,0,6.3,1.1c2.3,1.3,3.7,3.6,4.2,6.5c0.7,4.4-0.8,9.9-3.7,13.2
		c-0.4,0.5-0.6,1.3-0.4,2c0.1,0.3,0.2,0.6,0.6,0.8C24.5,25,32.8,28.2,32.8,33z"/>
</g>
</svg>
