<?xml version="1.0" encoding="utf-8"?>
<!-- Generator: Adobe Illustrator 19.2.1, SVG Export Plug-In . SVG Version: 6.00 Build 0)  -->
<svg version="1.1" id="Layer_1" xmlns="http://www.w3.org/2000/svg" xmlns:xlink="http://www.w3.org/1999/xlink" x="0px" y="0px"
	 viewBox="0 0 47 70" style="enable-background:new 0 0 47 70;" xml:space="preserve">
<style type="text/css">
	.st0{fill:none;enable-background:new    ;}
	.st1{fill:#00A546;}
</style>
<path class="st0" d="z"/>
<g>
	<path class="st1" d="M37.8,24.6c2.1-2.4,2.1-5.8,2.1-5.9V2.2h7V0H0v2.2h7.4v16.5c0,0.1,0,3.5,2,5.8l5.5,7.9
		c0.4,0.8,1.2,2.8,0.7,3.8c-0.6,1.2-3.9,5.1-6,7.5c-0.1,0.1-2.2,2.8-2.2,5.5v18.7H0V70H47v-2.2h-7V49.2c0-2.7-2.1-5.4-2.3-5.5
		c-2.1-2.3-5.4-6.2-6-7.4c-0.5-1,0.3-3,0.6-3.7L37.8,24.6z M29.7,37.2c0.9,1.9,5.7,7.3,6.3,7.9c0.5,0.6,1.7,2.5,1.7,4.1v18.7H9.6
		V49.2c0-1.6,1.3-3.5,1.7-4.1c0.5-0.6,5.4-6,6.3-7.9c1.1-2.2-0.5-5.4-0.8-5.9l-5.6-8.1c-1.6-1.8-1.6-4.5-1.6-4.5V2.2h28.1v16.5
		c0,0,0,2.7-1.7,4.6l-5.6,8.1C30.3,31.8,28.6,35,29.7,37.2z"/>
	<path class="st1" d="M16.3,50.3c0.1,3.6,0,9.7,0,9.7l1.3,0c0-0.1,0.1-6.2,0-9.8c-0.1-3.2,3.9-6.5,4-6.5l-0.8-1
		C20.6,42.9,16.2,46.5,16.3,50.3z"/>
</g>
</svg>
