<?xml version="1.0" encoding="utf-8"?>
<!-- Generator: Adobe Illustrator 19.2.1, SVG Export Plug-In . SVG Version: 6.00 Build 0)  -->
<svg version="1.1" id="Layer_1" xmlns="http://www.w3.org/2000/svg" xmlns:xlink="http://www.w3.org/1999/xlink" x="0px" y="0px"
	 viewBox="0 0 74 74" style="enable-background:new 0 0 74 74;" xml:space="preserve">
<style type="text/css">
	.st0{fill:none;enable-background:new    ;}
	.st1{fill:#CCCCCC;}
</style>
<path class="st0" d="z"/>
<g>
	<path class="st1" d="M72.8,35.8h-2.5c-0.6-17.4-14.7-31.4-32-32V1.2C38.2,0.6,37.7,0,37,0s-1.2,0.6-1.2,1.2v2.5
		c-17.4,0.6-31.4,14.7-32,32H1.2C0.6,35.8,0,36.3,0,37c0,0.7,0.6,1.2,1.2,1.2h2.5c0.6,17.4,14.7,31.4,32,32v2.5
		c0,0.7,0.6,1.2,1.2,1.2s1.2-0.6,1.2-1.2v-2.5c17.4-0.6,31.4-14.7,32-32h2.5c0.7,0,1.2-0.6,1.2-1.2C74,36.3,73.4,35.8,72.8,35.8
		L72.8,35.8z M38.2,67.8v-2.4c0-0.7-0.6-1.2-1.2-1.2s-1.2,0.5-1.2,1.2v2.4c-16-0.6-28.9-13.5-29.6-29.6h2.4c0.7,0,1.2-0.6,1.2-1.2
		c0-0.7-0.5-1.2-1.2-1.2H6.2c0.6-16,13.5-28.9,29.6-29.6v2.4c0,0.7,0.6,1.2,1.2,1.2s1.2-0.5,1.2-1.2V6.2c16,0.6,28.9,13.5,29.6,29.6
		h-2.4c-0.7,0-1.2,0.6-1.2,1.2c0,0.7,0.5,1.2,1.2,1.2h2.4C67.2,54.3,54.3,67.2,38.2,67.8L38.2,67.8z M38.2,67.8"/>
	<path class="st1" d="M51.8,35.8h-6.3C45,32,42,29,38.2,28.5v-6.3c0-0.7-0.6-1.2-1.2-1.2s-1.2,0.5-1.2,1.2v6.3
		C32,29,29,32,28.5,35.8h-6.3c-0.7,0-1.2,0.6-1.2,1.2c0,0.7,0.5,1.2,1.2,1.2h6.3C29,42,32,45,35.8,45.5v6.3c0,0.7,0.6,1.2,1.2,1.2
		s1.2-0.5,1.2-1.2v-6.3C42,45,45,42,45.5,38.2h6.3c0.7,0,1.2-0.6,1.2-1.2C53,36.3,52.5,35.8,51.8,35.8L51.8,35.8z M37,43.2
		c-3.4,0-6.2-2.8-6.2-6.2c0-3.4,2.8-6.2,6.2-6.2c3.4,0,6.2,2.8,6.2,6.2C43.2,40.4,40.4,43.2,37,43.2L37,43.2z M37,43.2"/>
</g>
</svg>
