<?xml version="1.0" encoding="utf-8"?>
<!-- Generator: Adobe Illustrator 19.2.1, SVG Export Plug-In . SVG Version: 6.00 Build 0)  -->
<svg version="1.1" id="Capa_1" xmlns="http://www.w3.org/2000/svg" xmlns:xlink="http://www.w3.org/1999/xlink" x="0px" y="0px"
	 viewBox="0 0 452.2 452.2" style="enable-background:new 0 0 452.2 452.2;" xml:space="preserve">
<style type="text/css">
	.st0{fill:#02B8F8;}
</style>
<path class="st0" d="M440.4,43.4l-26.1-26.1c-4.7-4.7-10.9-7.3-17.5-7.3s-12.9,2.6-17.5,7.3l-7.4,7.4l-0.6-0.6
	c-2.8-2.8-6.4-4.3-10.4-4.3s-7.6,1.5-10.4,4.3l-25.1,25.1l-7.2-7.2l32-32L340.3,0L166.7,173.6c-9.5,9.5-23,13.7-36.2,11.4l-2.5,13.8
	c3.2,0.6,6.4,0.8,9.6,0.8c14.5,0,28.5-5.7,38.9-16.1L308.3,51.8l7.2,7.2L94.7,279.9c-24,24-43.2,52-56.9,83.1L13.6,418l7.6,7.6
	L4.5,442.3l9.9,9.9l16.7-16.7l8.6,8.6l55.1-24.3c31.1-13.7,59-32.8,83.1-56.9l255.8-255.8c5.7-5.7,5.7-15,0-20.7l-0.6-0.6l7.4-7.4
	C450.1,68.8,450.1,53.1,440.4,43.4z M89.1,407l-46.3,20.4l-12.5-12.5l20.4-46.3c5.1-11.6,11-22.7,17.6-33.3l54,54
	C111.7,396,100.6,401.9,89.1,407z M167.9,353c-10.5,10.5-21.7,19.9-33.7,28.4l-58-58c8.5-12,17.9-23.2,28.4-33.7L345.1,49.3
	l63.3,63.3L167.9,353z M423.7,97.2l-5.5,5.5L355,39.4l5.5-5.5c0.3-0.3,0.7-0.3,0.9,0l62.4,62.4C424,96.6,424,97,423.7,97.2z
	 M430.5,68.6l-7.4,7.4l-41.4-41.4l7.4-7.4c2-2,4.8-3.2,7.6-3.2s5.6,1.1,7.6,3.2l26.1,26.1C434.7,57.5,434.7,64.4,430.5,68.6z"/>
</svg>
