<?xml version="1.0" encoding="utf-8"?>
<!-- Generator: Adobe Illustrator 19.2.1, SVG Export Plug-In . SVG Version: 6.00 Build 0)  -->
<svg version="1.1" id="Layer_1" xmlns="http://www.w3.org/2000/svg" xmlns:xlink="http://www.w3.org/1999/xlink" x="0px" y="0px"
	 viewBox="0 0 43.3 43.3" style="enable-background:new 0 0 43.3 43.3;" xml:space="preserve">
<style type="text/css">
	.st0{fill:#0041D3;}
	.st1{fill:#02B8F8;}
</style>
<path class="st0" d="M1540.2,23.1c-5.7,0-10.3,4.6-10.3,10.3v69.1c-18.9-26.9-43-49.8-71-67.5c-39.9-25.2-86-38.5-133.4-38.5
	c-66.8,0-129.5,26.1-176.8,73.2c-1.3,1.3-2.6,2.6-3.9,4l0-0.1c-4.9,5.1-9.6,10.5-14,16.1c-24.8,30.6-41.8,66.3-49.8,104.5
	c-6.9,31.8-7.4,64.6-1.5,96.8c0.1,0.7,0.3,1.5,0.4,2.2c0.1,0.6,0.2,1.1,0.3,1.7c2.7,14,6.7,27.7,11.7,40.9l2-0.8
	c2.6,1.7,5.9,2.2,9,1.1c3.5-1.2,5.9-4.1,6.6-7.5l1.6-0.6c-9.7-25.3-15-52.8-15-81.5c0-13.4,1.2-26.6,3.4-39.4c0.2-1,0.4-2,0.5-3
	c0,0,0,0,0,0c5.6-29.6,17.1-57.9,33.5-83c0.4-0.6,0.8-1.3,1.2-1.9c0.3-0.4,0.6-0.9,0.9-1.3c41.3-60.7,111-100.7,189.8-100.7
	c82.3,0,156.8,43,197.9,113.4h-76.8c-5.7,0-10.3,4.6-10.3,10.3s4.6,10.3,10.3,10.3h92.6c3.1,0,5.8-1.3,7.7-3.5
	c2.2-1.9,3.6-4.7,3.6-7.8V33.3C1550.5,27.7,1545.9,23.1,1540.2,23.1z"/>
<path class="st0" d="M1117.7,478.8c5.7,0,10.3-4.6,10.3-10.3v-61.1c18.9,26.9,43,49.8,71,67.5c39.9,25.2,86,38.5,133.4,38.5
	c66.8,0,129.5-26.1,176.8-73.2c1.3-1.3,2.6-2.6,3.9-4l0,0.1c4.9-5.1,9.6-10.5,14-16.1c24.8-30.6,41.8-66.3,49.8-104.5
	c6.9-31.8,7.4-64.6,1.5-96.8c-0.1-0.7-0.3-1.5-0.4-2.2c-0.1-0.6-0.2-1.1-0.3-1.7c-2.7-14-6.7-27.7-11.7-40.9l-2,0.8
	c-2.6-1.7-5.9-2.2-9-1.1c-3.5,1.2-5.9,4.1-6.6,7.5l-1.6,0.6c9.7,25.3,15,52.8,15,81.5c0,13.4-1.2,26.6-3.4,39.4c-0.2,1-0.4,2-0.5,3
	c0,0,0,0,0,0c-5.6,29.6-17.1,57.9-33.5,83c-0.4,0.6-0.8,1.3-1.2,1.9c-0.3,0.4-0.6,0.9-0.9,1.3c-41.3,60.7-111,100.7-189.8,100.7
	c-82.3,0-156.8-43-197.9-113.4h85.8c5.7,0,10.3-4.6,10.3-10.3s-4.6-10.3-10.3-10.3h-101.6c-3.1,0-5.8,1.3-7.7,3.5
	c-2.2,1.9-3.6,4.7-3.6,7.8v98.4C1107.4,474.2,1112,478.8,1117.7,478.8z"/>
<g>
	<path class="st1" d="M21.7,1.6c6,0,11.3,2.6,15,6.8h-5.4v1.2h6.6v0H39V1.9h-1.2v5.4C33.9,2.8,28.1,0,21.7,0C9.7,0,0,9.7,0,21.7
		c0,1.9,0.2,3.7,0.7,5.5c0,0,0.4,0.5,0.9,0.5c0.5,0,0.8-0.6,0.8-0.6c-0.5-1.7-0.7-3.4-0.7-5.3C1.6,10.6,10.6,1.6,21.7,1.6z"/>
	<path class="st1" d="M42.5,15.7c0,0-0.3-0.4-0.8-0.4s-0.8,0.5-0.8,0.5c0.6,1.9,0.9,3.7,0.9,5.8c0,11.1-9,20.1-20.1,20.1
		c-6.2,0-11.8-2.9-15.5-7.3l5.8-0.1l0-1.2l-6.6,0.1l0,0l-1.2,0l0,1.2h0c0,0,0,0,0,0L4.3,41l1.2,0l-0.1-5c4,4.5,9.8,7.4,16.3,7.4
		c11.9,0,21.7-9.7,21.7-21.7C43.3,19.6,43,17.6,42.5,15.7z"/>
</g>
</svg>
