<?xml version="1.0" encoding="utf-8"?>
<!-- Generator: Adobe Illustrator 19.2.1, SVG Export Plug-In . SVG Version: 6.00 Build 0)  -->
<svg version="1.1" id="Layer_1" xmlns="http://www.w3.org/2000/svg" xmlns:xlink="http://www.w3.org/1999/xlink" x="0px" y="0px"
	 viewBox="0 0 24 24" style="enable-background:new 0 0 24 24;" xml:space="preserve">
<style type="text/css">
	.st0{fill:#B6B6B6;}
	.st1{fill:none;}
</style>
<g>
	<path class="st0" d="M22.2,1.7c-2.2-2.2-5.8-2.2-7.9,0l-4,4c-0.3,0.3-0.3,0.9,0,1.2c0.3,0.3,0.9,0.3,1.2,0l4-4
		c0.7-0.7,1.7-1.1,2.7-1.1c1,0,2,0.4,2.7,1.1c0.7,0.7,1.1,1.7,1.1,2.7c0,1-0.4,2-1.1,2.7l-5.2,5.2c-1.5,1.5-4,1.5-5.5,0
		c-0.3-0.3-0.9-0.3-1.2,0c-0.3,0.3-0.3,0.9,0,1.2c1.1,1.1,2.5,1.6,4,1.6c1.4,0,2.9-0.5,4-1.6l5.2-5.2c1.1-1.1,1.6-2.5,1.6-4
		C23.8,4.2,23.3,2.8,22.2,1.7L22.2,1.7z M22.2,1.7"/>
	<rect x="0.1" y="0.1" class="st1" width="23.7" height="24.2"/>
	<path class="st0" d="M11.8,17.6L8.5,21c-0.7,0.7-1.7,1.1-2.7,1.1c-1,0-2-0.4-2.8-1.1c-1.5-1.5-1.5-4,0-5.5l4.9-4.9
		c0.7-0.7,1.7-1.1,2.8-1.1c1,0,2,0.4,2.7,1.1c0.3,0.3,0.9,0.3,1.2,0c0.3-0.3,0.3-0.9,0-1.2c-2.2-2.2-5.8-2.2-7.9,0l-4.9,4.9
		c-1.1,1.1-1.6,2.5-1.6,4s0.6,2.9,1.6,4c1.1,1.1,2.5,1.6,4,1.6c1.5,0,2.9-0.6,4-1.6l3.4-3.4c0.3-0.3,0.3-0.9,0-1.2
		C12.7,17.3,12.2,17.3,11.8,17.6L11.8,17.6z M11.8,17.6"/>
</g>
</svg>
