<?xml version="1.0" encoding="utf-8"?>
<!-- Generator: Adobe Illustrator 19.2.1, SVG Export Plug-In . SVG Version: 6.00 Build 0)  -->
<svg version="1.1" id="Layer_1" xmlns="http://www.w3.org/2000/svg" xmlns:xlink="http://www.w3.org/1999/xlink" x="0px" y="0px"
	 viewBox="0 0 94 64" style="enable-background:new 0 0 94 64;" xml:space="preserve">
<style type="text/css">
	.st0{fill:none;enable-background:new    ;}
	.st1{fill:#CCCCCC;}
</style>
<path class="st0" d="z"/>
<g>
	<path class="st1" d="M9.9,61.1H3.8V55c0-0.5-0.4-0.9-0.9-0.9S2,54.5,2,55v7c0,0.5,0.4,0.9,0.9,0.9h7c0.5,0,0.9-0.4,0.9-0.9
		C10.8,61.5,10.4,61.1,9.9,61.1L9.9,61.1z M9.9,61.1"/>
	<path class="st1" d="M91.5,53.2c-0.5,0-0.9,0.4-0.9,0.9v6.1h-6.1c-0.5,0-0.9,0.4-0.9,0.9S84,62,84.5,62h7c0.5,0,0.9-0.4,0.9-0.9v-7
		C92.4,53.6,92,53.2,91.5,53.2L91.5,53.2z M91.5,53.2"/>
	<path class="st1" d="M9.9,0h-7C2.4,0,2,0.4,2,0.9v7c0,0.5,0.4,0.9,0.9,0.9s0.9-0.4,0.9-0.9V1.8h6.1c0.5,0,0.9-0.4,0.9-0.9
		S10.4,0,9.9,0L9.9,0z M9.9,0"/>
	<path class="st1" d="M90,0h-7c-0.5,0-0.9,0.4-0.9,0.9s0.4,0.9,0.9,0.9h6.1v6.1c0,0.5,0.4,0.9,0.9,0.9s0.9-0.4,0.9-0.9v-7
		C90.9,0.4,90.5,0,90,0L90,0z M90,0"/>
	<g id="Capa_2">
		<g id="Capa_1-2">
			<g id="icn_profile_normal">
				<path class="st1" d="M78.8,7.2H8.5v50.4h70.3c3.6,0,6.6-2.9,6.6-6.6V13.7C85.4,10.1,82.4,7.2,78.8,7.2z M83.8,51
					c0,2.7-2.2,5-5,5H10.1V8.8h68.7c2.7,0,5,2.2,5,5V51z"/>
				<path class="st1" d="M14.5,12.8c-0.2,0-0.4,0.2-0.4,0.4v37.6c0,0.2,0.2,0.4,0.4,0.4c0.2,0,0.4-0.2,0.4-0.4V13.2
					C14.9,12.9,14.8,12.8,14.5,12.8z M59.2,35.5l-5.7,2.2c-1,0.5-1.6,1.4-1.7,2.5v5.4h0.8v-5.4c0.1-0.7,0.6-1.4,1.2-1.7l5.7-2.2h0.1
					c0.6-0.2,1.1-0.7,1.5-1.3l-0.7-0.3C60,35,59.6,35.3,59.2,35.5z M72.3,37.7l-5.7-2.2c-0.4-0.2-0.8-0.5-1-0.9l-0.7,0.3
					c0.3,0.6,0.8,1,1.4,1.3l5.8,2.3c0.7,0.4,1.2,1,1.4,1.7v5.4h0.8v-5.4C74,39.1,73.3,38.2,72.3,37.7z M66.8,29.2l0.6-4.6v-0.1
					c0.1-2.8-2.1-5.1-4.8-5.2c-2.8-0.1-5.1,2.1-5.2,4.8c0,0.1,0,0.3,0,0.4l0.6,4.6c0.6,2.4,2.3,4.3,4,4.3h0.7
					C64.5,33.6,66.3,31.7,66.8,29.2z M62.8,32.8h-0.7c-1.2,0-2.7-1.4-3.2-3.6l-0.6-4.5c0-2.3,1.9-4.2,4.2-4.2c2.3,0,4.2,1.9,4.2,4.2
					L66,29.1C65.5,31.4,63.9,32.8,62.8,32.8L62.8,32.8z M40.9,27.2H19.3c-0.2,0-0.4,0.2-0.4,0.4c0,0.2,0.2,0.4,0.4,0.4h21.6
					c0.2,0,0.4-0.2,0.4-0.4C41.3,27.3,41.2,27.2,40.9,27.2z M40.9,20H19.3c-0.2,0-0.4,0.2-0.4,0.4c0,0.2,0.2,0.4,0.4,0.4h21.6
					c0.2,0,0.4-0.2,0.4-0.4C41.3,20.1,41.2,20,40.9,20z"/>
			</g>
		</g>
	</g>
</g>
</svg>
