<?xml version="1.0" encoding="utf-8"?>
<!-- Generator: Adobe Illustrator 19.2.1, SVG Export Plug-In . SVG Version: 6.00 Build 0)  -->
<svg version="1.1" id="Layer_1" xmlns="http://www.w3.org/2000/svg" xmlns:xlink="http://www.w3.org/1999/xlink" x="0px" y="0px"
	 viewBox="0 0 81 82" style="enable-background:new 0 0 81 82;" xml:space="preserve">
<style type="text/css">
	.st0{fill:none;enable-background:new    ;}
	.st1{fill:#CCCCCC;}
</style>
<path class="st0" d="z"/>
<g>
	<g>
		<path class="st1" d="M42.6,69.8V80c0,1.1-0.9,2-2,2c-1.1,0-2-0.9-2-2V69.8c0-1.1,0.9-2,2-2C41.8,67.8,42.6,68.7,42.6,69.8
			L42.6,69.8z M40.7,0c-1.1,0-2,0.9-2,2v9.7c0,1.1,0.9,2,2,2c1.1,0,2-0.9,2-2V1.9C42.6,0.8,41.8,0,40.7,0L40.7,0z M13.7,40.7
			c0-1.1-0.9-2-2-2H2c-1.1,0-2,0.9-2,2c0,1.1,0.9,2,2,2h9.7C12.8,42.7,13.7,41.8,13.7,40.7L13.7,40.7z M79.5,38.7h-9.7
			c-1.1,0-2,0.9-2,2c0,1.1,0.9,2,2,2h9.7c1.1,0,2-0.9,2-2C81.5,39.6,80.6,38.7,79.5,38.7L79.5,38.7z M19,60.1L12.1,67
			c-0.8,0.8-0.8,2,0,2.8c0.4,0.4,0.9,0.6,1.4,0.6c0.5,0,1-0.2,1.4-0.6l6.9-6.9c0.8-0.8,0.8-2,0-2.8C21,59.3,19.7,59.3,19,60.1
			L19,60.1z M61.6,22.2c0.5,0,1-0.2,1.4-0.6l6.9-6.9c0.8-0.8,0.8-2,0-2.8c-0.8-0.8-2-0.8-2.8,0l-6.9,6.9c-0.8,0.8-0.8,2,0,2.8
			C60.6,22,61.1,22.2,61.6,22.2L61.6,22.2z M14.9,11.9c-0.8-0.8-2-0.8-2.8,0c-0.8,0.8-0.8,2,0,2.8l6.9,6.9c0.4,0.4,0.9,0.6,1.4,0.6
			c0.5,0,1-0.2,1.4-0.6c0.8-0.8,0.8-2,0-2.8L14.9,11.9z M63,60.1c-0.8-0.8-2-0.8-2.8,0c-0.8,0.8-0.8,2,0,2.8l6.9,6.9
			c0.4,0.4,0.9,0.6,1.4,0.6c0.5,0,1-0.2,1.4-0.6c0.8-0.8,0.8-2,0-2.8L63,60.1z M64.5,40.7c0,12.9-10.5,23.5-23.5,23.5
			c-12.9,0-23.5-10.5-23.5-23.5C17.5,27.7,28,17.2,41,17.2C53.9,17.2,64.5,27.7,64.5,40.7L64.5,40.7z M40.5,21.2
			C30,21.3,21.2,30,21.2,40.7c0,10.7,8.8,19.4,19.3,19.5V21.2z M40.5,21.2"/>
	</g>
</g>
</svg>
