<?xml version="1.0" encoding="utf-8"?>
<!-- Generator: Adobe Illustrator 19.2.1, SVG Export Plug-In . SVG Version: 6.00 Build 0)  -->
<svg version="1.1" id="Layer_1" xmlns="http://www.w3.org/2000/svg" xmlns:xlink="http://www.w3.org/1999/xlink" x="0px" y="0px"
	 viewBox="0 0 30 21" style="enable-background:new 0 0 30 21;" xml:space="preserve">
<style type="text/css">
	.st0{fill:none;enable-background:new    ;}
	.st1{fill:#2D92C7;}
</style>
<path class="st0" d="z"/>
<path class="st1" d="M3.6,2C2.6,2,1.9,2.8,1.9,3.7v13.7c0,0.9,0.8,1.7,1.7,1.7h22.9c0.9,0,1.7-0.8,1.7-1.7V3.7
	c0-0.9-0.8-1.7-1.7-1.7H3.6z M26.4,20.4H3.6c-1.7,0-3-1.4-3-3V3.7c0-1.7,1.4-3,3-3h22.9c1.7,0,3,1.4,3,3v13.7
	C29.5,19,28.1,20.4,26.4,20.4z"/>
<path class="st1" d="M15,5.3c-2.9,0-5.2,2.3-5.2,5.2s2.3,5.2,5.2,5.2s5.2-2.3,5.2-5.2S17.9,5.3,15,5.3z M15,17.1
	c-3.6,0-6.6-2.9-6.6-6.6s2.9-6.6,6.6-6.6s6.6,2.9,6.6,6.6S18.6,17.1,15,17.1z"/>
</svg>
