<?xml version="1.0" encoding="utf-8"?>
<!-- Generator: Adobe Illustrator 19.2.1, SVG Export Plug-In . SVG Version: 6.00 Build 0)  -->
<svg version="1.1" id="Isolation_Mode" xmlns="http://www.w3.org/2000/svg" xmlns:xlink="http://www.w3.org/1999/xlink" x="0px"
	 y="0px" viewBox="0 0 595.3 841.9" style="enable-background:new 0 0 595.3 841.9;" xml:space="preserve">
<style type="text/css">
	.st0{fill:#0072AA;}
	.st1{fill:#72B0D2;}
	.st2{fill:#A5D1A1;}
	.st3{fill:#22AA47;}
</style>
<g>
	<path class="st0" d="M212.1,414.3h-3c-2,0-2.8-1.3-2.8-3.1v-13h5.7v-3.7h-5.7v-6.9h-4.1v23.6c0,5,2.5,7.1,6.9,7.1h3V414.3z"/>
	<path class="st0" d="M172.3,407v0.2c0,8.4,6.9,11.5,13.3,11.5c6.3,0,12.7-3,12.7-9.7c0-6.5-5.3-8.2-10.3-9.4l-1.7-0.4
		c-4.5-1-8.4-1.8-8.4-5.1c0-4.8,4.9-5.3,7-5.3c4.6,0,7.3,2.2,7.7,6.4l0,0.2h4.4l0-0.2c-0.3-6.5-4.6-10.3-11.9-10.3
		c-5.8,0-11.7,2.9-11.7,9.5c0,5.9,4.9,7.4,10.4,8.6l1.1,0.2c4.6,1,9,1.9,9,5.9c0,4.9-5,5.6-7.9,5.6c-2.5,0-4.8-0.6-6.4-1.8
		c-1.8-1.3-2.8-3.3-2.8-5.7V407H172.3z"/>
	<path class="st0" d="M237,414.4l-0.2,0.1c-0.5,0.2-0.9,0.2-1.1,0.2c-1,0-1-0.5-1-2.4v-11.9c0-4.4-2.9-6.5-8.8-6.5
		c-3.6,0-9.7,1-10,7.9l0,0.2h4.1l0-0.2c0.2-2.9,1.9-4.2,5.6-4.2c3.4,0,5,1.2,5,3.7c0,2.1-2.1,2.4-5.1,2.8c-0.8,0.1-1.7,0.2-2.6,0.4
		c-4,0.8-8,2-8,7.3c0,4.2,2.9,6.7,7.8,6.7c3.3,0,6-1.2,8-3.4c0.2,2.7,1.9,3.4,3.4,3.4c1.2,0,2.1-0.2,2.8-0.7l0.1-0.1V414.4z
		 M223.6,414.7c-1.3,0-4.3-0.3-4.3-3.2c0-2.8,2.3-3.6,4.5-4c0.7-0.1,1.4-0.2,2.1-0.3c1.8-0.2,3.5-0.5,4.6-1.1c0,0,0.1-0.1,0,0v3.6
		C230.5,411.6,228.6,414.7,223.6,414.7z"/>
	<path class="st0" d="M240.7,394.5v23.4h4.1v-13.2c0-4.4,2.5-7.1,6.7-7.1c2.8,0,4.5,1.7,4.5,4.5v15.8h4.1v-15.4
		c0-5.8-2.7-8.6-8.1-8.6c-3.3,0-5.8,1.3-7.4,3.9v-3.4H240.7z"/>
	<path class="st0" d="M282.1,385.7v11.7c-1.8-2.5-4.9-3.4-7.4-3.4c-6.5,0-10.7,4.8-10.7,12.2c0,3.4,1,6.5,2.7,8.6
		c1.9,2.4,4.7,3.7,8.1,3.7c3.4,0,6-1.2,7.3-3.4v2.8h4.1v-32.3H282.1z M275.4,414.8c-4.8,0-7-4.2-7-8.4c0-2.6,0.7-8.8,6.8-8.8
		c6.6,0,7.1,6.6,7.1,8.6C282.3,410.4,280.4,414.8,275.4,414.8z"/>
	<path class="st0" d="M312.5,414.5l-0.2,0.1c-0.5,0.2-0.9,0.2-1.1,0.2c-1,0-1.1-0.5-1.1-2.4v-11.9c0-4.4-2.9-6.5-8.8-6.5
		c-3.6,0-9.7,1-10,7.9l0,0.2h4.1l0-0.2c0.2-2.9,1.9-4.2,5.6-4.2c3.4,0,5,1.2,5,3.7c0,2.1-2.1,2.4-5,2.8c-0.8,0.1-1.7,0.2-2.6,0.4
		c-4,0.8-8,2-8,7.3c0,4.2,2.9,6.7,7.8,6.7c3.3,0,6-1.2,8-3.4c0.2,2.7,1.9,3.4,3.3,3.4c1.2,0,2.1-0.2,2.8-0.7l0.1,0V414.5z
		 M299.1,414.8c-1.3,0-4.3-0.3-4.3-3.2c0-2.8,2.3-3.6,4.5-4c0.7-0.1,1.4-0.2,2.1-0.3c1.8-0.2,3.5-0.5,4.6-1.1c0,0,0.1-0.1,0,0v3.6
		C306,411.7,304.1,414.8,299.1,414.8z"/>
	<path class="st0" d="M328.6,394l-0.2,0c-3.9-0.1-6.5,1.4-8.4,5.1v-4.5h-3.9v23.4h4.1v-10.5c0-6.2,2.6-9.2,8.2-9.2h0.2V394z"/>
	<path class="st0" d="M347.3,385.7v11.7c-1.8-2.5-4.9-3.4-7.4-3.4c-6.5,0-10.7,4.8-10.7,12.2c0,3.4,1,6.5,2.7,8.6
		c1.9,2.4,4.7,3.7,8.1,3.7c3.4,0,6-1.3,7.3-3.4v2.8h4.2v-32.3H347.3z M340.5,414.8c-4.8,0-7-4.2-7-8.4c0-2.6,0.7-8.8,6.8-8.8
		c6.6,0,7.1,6.6,7.1,8.6C347.4,410.4,345.6,414.8,340.5,414.8z"/>
	<path class="st0" d="M180.8,450.5l0,0.2c-0.4,5.6-3.9,9-9,9c-3.6,0-6.3-1.3-8.2-3.9c-1.7-2.3-2.5-5.5-2.5-9.3
		c0-3.5,0.9-6.6,2.5-8.9c1.9-2.5,4.7-3.9,8.1-3.9c4.7,0,7.9,2.5,8.8,6.7l0,0.1h4.6l0-0.2c-0.5-3.3-2-6-4.5-7.9
		c-2.3-1.7-5.4-2.7-8.8-2.7c-4.7,0-8.6,1.7-11.4,5c-2.5,3-3.9,7.3-3.9,12c0,10.4,5.7,16.8,14.9,16.8c4,0,7.3-1.2,9.7-3.4
		c2.4-2.2,3.8-5.5,4.2-9.5l0-0.2H180.8z"/>
	<path class="st0" d="M189.4,430.6v32.3h4.1v-13.2c0-4.4,2.5-7.1,6.7-7.1c2.8,0,4.5,1.7,4.5,4.5v15.8h4.1v-15.4
		c0-5.8-2.7-8.6-8.1-8.6c-2.5,0-5.7,0.9-7.2,3.6v-11.9H189.4z"/>
	<path class="st0" d="M217.6,447l0-0.2c0.2-2.9,1.9-4.2,5.6-4.2c3.4,0,5,1.2,5,3.7c0,2.1-2.1,2.4-5.1,2.8c-0.8,0.1-1.7,0.2-2.6,0.4
		c-4,0.8-8,2-8,7.3c0,4.2,2.9,6.7,7.8,6.7c3.3,0,6-1.1,8-3.3c0.2,2.7,1.9,3.3,3.4,3.3c1.2,0,2.1-0.2,2.8-0.6l0.1,0v-3.3l-0.2,0.1
		c-0.5,0.2-0.9,0.2-1.1,0.2c-1,0-1-0.5-1-2.4v-11.9c0-4.4-2.9-6.5-8.8-6.5c-3.6,0-9.7,1-10,7.9l0,0.2H217.6z M221.2,459.7
		c-1.3,0-4.3-0.3-4.3-3.2c0-2.8,2.3-3.6,4.5-4c0.7-0.1,1.4-0.2,2.1-0.3c1.8-0.2,3.5-0.5,4.6-1.1c0,0,0.1-0.1,0,0v3.6
		C228.1,456.6,226.2,459.7,221.2,459.7z"/>
	<path class="st0" d="M351.4,462.9v-32.3h-4.2v11.7c-1.8-2.5-4.9-3.4-7.4-3.4c-6.5,0-10.7,4.8-10.7,12.2c0,3.4,1,6.5,2.7,8.6
		c1.9,2.4,4.7,3.7,8.1,3.7c3.4,0,6-1.2,7.3-3.4v2.8H351.4z M340.5,459.7c-4.8,0-7-4.2-7-8.4c0-2.6,0.7-8.8,6.8-8.8
		c6.6,0,7.1,6.6,7.1,8.6C347.4,455.3,345.6,459.7,340.5,459.7z"/>
	<path class="st0" d="M283.3,455.6c-0.7,2.7-2.7,4.1-5.7,4.1c-2.1,0-3.9-0.7-5.2-1.9c-1.2-1.3-1.9-3.2-1.9-5.3h17.1h0.2l0-0.2
		c0.2-4.2-1.1-8.1-3.4-10.5c-1.8-1.9-4.3-2.9-7.2-2.9c-6.4,0-11,5.1-11,12.2c0.2,7.8,4.4,12.3,11.3,12.3c5.3,0,8.9-2.8,10-7.8H283.3
		z M277,442.6c3.5,0,6.2,2.6,6.5,6.2h-12.9C270.8,445.6,272.9,442.6,277,442.6z"/>
	<path class="st0" d="M321.9,455.7c-0.7,2.6-2.8,4.1-5.7,4.1c-2.1,0-3.9-0.7-5.1-1.9c-1.3-1.3-1.9-3.2-1.9-5.3h17.1h0.2l0-0.2
		c0.2-4.2-1.1-8.1-3.4-10.5c-1.8-1.9-4.3-2.9-7.2-2.9c-6.4,0-11,5.1-11,12.2c0.2,7.8,4.3,12.3,11.3,12.3c5.3,0,8.9-2.8,10-7.8H321.9
		z M315.6,442.6c3.5,0,6.2,2.6,6.5,6.2h-12.9C309.5,445.6,311.6,442.6,315.6,442.6z"/>
	<path class="st0" d="M242.4,462.9v-10.5c0-6.3,2.6-9.2,8.2-9.2h0.2v-4.4l-0.2,0c-3.9-0.1-6.5,1.4-8.4,5v-4.5h-3.9v23.5H242.4z"/>
	<path class="st0" d="M296,462.9v-10.5c0-6.3,2.6-9.2,8.2-9.2h0.2v-4.4l-0.2,0c-3.9-0.1-6.5,1.4-8.4,5v-4.5h-3.9v23.5H296z"/>
	<path class="st0" d="M264.1,459.2h-2.9c-2,0-2.8-1.3-2.8-3.1v-13h5.7v-3.7h-5.7v-6.9h-4.1V456c0,5,2.5,7.1,6.9,7.1h2.9V459.2z"/>
	<g>
		<g>
			<g>
				<path class="st1" d="M391.1,471.7c-2.8,1.7-5.4,2.7-8.1,2.7c-7,0-12.8-5.7-13.1-12.6l13.6-8.1l21.1,9.4L391.1,471.7z"/>
				<path class="st2" d="M399.2,436.9l-10.1-4.4c-4.5-2-8.8-3.7-8.8-8.7c0-2.6,0.8-3.9,2-5.3l21.4,9.4l-5.3,3.1
					c-1.5,0.9-2.5,1.7-2.5,2.8C395.9,435,397.3,436.1,399.2,436.9L399.2,436.9z"/>
				<path class="st1" d="M409.1,390.3l-10.3,6.3c-0.9,0.6-2.1,1.5-2.1,2.8c0,1.6,2.4,2.8,4.5,3.8l-12.9-5.7
					c-3.8-1.7-7.6-3.6-7.6-8.2c0-1.9,0.6-3.5,1.5-4.8l28-17.1c3.4,1.9,6.6,5.7,6.6,10.9C416.6,383.8,413.8,387.5,409.1,390.3z"/>
				<path class="st2" d="M431.1,410.5l-2.6,1.5l-21.4-9.4l24.9-15c3.4,1.9,6.6,5.7,6.6,10.9C438.6,404,435.9,407.8,431.1,410.5z"/>
				<path class="st1" d="M413.1,428.7l12.6,5.6c4.7,2.1,6.2,4.6,6.2,7.8c0,1.8-1,3.6-2.5,4.8l-21.3-9.4l3.6-2c3-1.7,4.1-2.7,4.1-3.8
					C415.8,430.4,415.1,429.6,413.1,428.7L413.1,428.7z"/>
				<path class="st3" d="M435.6,475.4c-5.4-4.1-11.1-6.9-18.1-10.1L385.2,451c-8.1-3.6-13.5-8.4-13.5-16.5c0-7.9,3.8-11.7,8.8-14.8
					l1.8-1.1c-1.2,1.3-2,2.7-2,5.3c0,5,4.3,6.6,8.8,8.7l37.5,16.5c6.5,2.8,12.5,7.6,12.5,15.8C439.1,469.3,437.4,473.4,435.6,475.4z
					"/>
				<path class="st0" d="M431.8,445.4l-2.4,1.5c1.5-1.2,2.5-3,2.5-4.8c0-3.1-1.5-5.6-6.2-7.8l-40.1-17.7
					c-8.1-3.6-13.1-8.2-13.1-16.3c0-7.4,3.7-12.3,9.6-15.9c-0.9,1.3-1.5,2.9-1.5,4.8c0,4.6,3.8,6.5,7.6,8.2l39,17.2
					c7.1,3.1,12.8,7.9,12.8,16.5C440,438,436.8,442.2,431.8,445.4z"/>
			</g>
		</g>
	</g>
</g>
</svg>
