<?xml version="1.0" encoding="utf-8"?>
<!-- Generator: Adobe Illustrator 19.2.1, SVG Export Plug-In . SVG Version: 6.00 Build 0)  -->
<svg version="1.1" id="Layer_1" xmlns="http://www.w3.org/2000/svg" xmlns:xlink="http://www.w3.org/1999/xlink" x="0px" y="0px"
	 viewBox="0 0 60 40" style="enable-background:new 0 0 60 40;" xml:space="preserve">
<style type="text/css">
	.st0{fill:none;enable-background:new    ;}
	.st1{fill:#231F20;}
</style>
<path class="st0" d="z"/>
<path d="M54.1,0H5.9C2.7,0,0.1,2.6,0.1,5.8v28.4c0,3.2,2.6,5.8,5.8,5.8h48.3c3.2,0,5.8-2.6,5.8-5.8V5.8C59.9,2.6,57.3,0,54.1,0z
	 M54.1,1.9c2.2,0,3.9,1.8,3.9,3.9v28.4c0,2.2-1.8,3.9-3.9,3.9H5.9c-2.2,0-3.9-1.8-3.9-3.9V5.8c0-2.2,1.8-3.9,3.9-3.9L54.1,1.9"/>
<rect x="1.3" y="8.9" width="57.4" height="1.9"/>
<rect x="5.7" y="14.1" width="1.9" height="19.5"/>
<g>
	<path class="st1" d="M40.8,14.4h1.4l2,5.7h-1.3l-0.4-1.2h-2.1L40,20.1h-1.3L40.8,14.4z M40.7,18h1.5l-0.7-2.3L40.7,18z"/>
	<path class="st1" d="M48.4,14.4v1h-1.7v4.7h-1.2v-4.7h-1.7v-1H48.4z"/>
	<path class="st1" d="M52.9,14.4h1.7v5.7h-1.1v-3.9c0-0.1,0-0.3,0-0.5c0-0.2,0-0.4,0-0.5l-1.1,4.8h-1.2l-1.1-4.8c0,0.1,0,0.3,0,0.5
		c0,0.2,0,0.4,0,0.5v3.9h-1.1v-5.7h1.7l1,4.5L52.9,14.4z"/>
</g>
</svg>
