<?xml version="1.0" encoding="utf-8"?>
<!-- Generator: Adobe Illustrator 19.2.1, SVG Export Plug-In . SVG Version: 6.00 Build 0)  -->
<svg version="1.1" id="Layer_1" xmlns="http://www.w3.org/2000/svg" xmlns:xlink="http://www.w3.org/1999/xlink" x="0px" y="0px"
	 viewBox="0 0 60 40" style="enable-background:new 0 0 60 40;" xml:space="preserve">
<style type="text/css">
	.st0{fill:none;enable-background:new    ;}
	.st1{fill:#0D0D0B;}
</style>
<path class="st0" d="z"/>
<path d="M53.3,0H5.6C2.4,0-0.1,2.6-0.1,5.7v28.1c0,3.1,2.6,5.7,5.7,5.7h47.7c3.1,0,5.7-2.6,5.7-5.7V5.7C59,2.6,56.4,0,53.3,0z
	 M53.3,1.8c2.1,0,3.9,1.7,3.9,3.9v28.1c0,2.1-1.7,3.9-3.9,3.9H5.6c-2.1,0-3.9-1.7-3.9-3.9V5.7c0-2.1,1.7-3.9,3.9-3.9L53.3,1.8"/>
<rect x="28.8" y="6.2" width="21.1" height="1.5"/>
<rect x="28.8" y="10.4" width="21.1" height="1.5"/>
<rect x="5.6" y="6.1" width="1.5" height="27.1"/>
<path d="M11,6v18h14V6H11z M24,22H13V8h11V22z"/>
<path class="st1" d="M43,31.3c-3.4,0-6.2-2.7-6.2-6.1c0-3.4,2.7-6.2,6.1-6.2c3.4,0,6.2,2.7,6.2,6.1c0,0,0,0,0,0.1
	C49.1,28.6,46.3,31.3,43,31.3z M43,20c-2.9,0-5.2,2.3-5.3,5.1c0,2.9,2.3,5.2,5.1,5.3c2.9,0,5.2-2.3,5.3-5.1c0,0,0,0,0-0.1
	C48.1,22.3,45.8,20,43,20z M51,33.7c-0.1,0-0.2-0.1-0.3-0.1l-2.8-2.8c-0.2-0.2-0.2-0.5,0-0.7c0.2-0.2,0.5-0.2,0.7,0l2.8,2.8
	c0.2,0.2,0.2,0.5,0,0.7C51.3,33.7,51.2,33.7,51,33.7z M39.8,27.9c-0.1,0-0.1,0-0.2-0.1c-1.3-1.5-1.4-3.7-0.1-5.2
	c0.1-0.1,0.2-0.1,0.3,0c0.1,0.1,0.1,0.2,0,0.3c-1.1,1.3-1,3.3,0.1,4.6c0.1,0.1,0.1,0.2,0,0.3C39.9,27.9,39.8,27.9,39.8,27.9z"/>
</svg>
