<?xml version="1.0" encoding="utf-8"?>
<!-- Generator: Adobe Illustrator 19.2.1, SVG Export Plug-In . SVG Version: 6.00 Build 0)  -->
<svg version="1.1" id="Layer_1" xmlns="http://www.w3.org/2000/svg" xmlns:xlink="http://www.w3.org/1999/xlink" x="0px" y="0px"
	 viewBox="0 0 61 41" style="enable-background:new 0 0 61 41;" xml:space="preserve">
<style type="text/css">
	.st0{fill:none;enable-background:new    ;}
</style>
<path class="st0" d="z"/>
<path d="M54.7,19.4c0,2-1.6,3.6-3.6,3.6c-0.4,0-0.8-0.1-1.2-0.2c0.7-0.9,1.2-2.1,1.2-3.4s-0.5-2.4-1.2-3.4c0.4-0.1,0.8-0.2,1.2-0.2
	C53.1,15.8,54.7,17.4,54.7,19.4z M49.3,19.4c0,0.9-0.3,1.7-0.9,2.4c-0.6-0.6-0.9-1.4-0.9-2.4s0.3-1.7,0.9-2.4
	C49,17.7,49.3,18.5,49.3,19.4z M42.1,19.4c0-2,1.6-3.6,3.6-3.6c0.4,0,0.8,0.1,1.2,0.2c-0.7,0.9-1.2,2.1-1.2,3.4s0.5,2.4,1.2,3.4
	c-0.4,0.1-0.8,0.2-1.2,0.2C43.7,23,42.1,21.4,42.1,19.4z M40.3,19.4c0,3,2.4,5.4,5.4,5.4c1,0,1.9-0.3,2.7-0.7
	c0.8,0.5,1.7,0.7,2.7,0.7c3,0,5.4-2.4,5.4-5.4S54.1,14,51.1,14c-1,0-1.9,0.3-2.7,0.7c-0.8-0.5-1.7-0.7-2.7-0.7
	C42.7,14,40.3,16.5,40.3,19.4z"/>
<path d="M55.2,0H5.8C2.5,0-0.2,2.7-0.2,5.9v29.1c0,3.3,2.7,5.9,5.9,5.9h49.5c3.3,0,5.9-2.7,5.9-5.9V5.9C61.2,2.7,58.5,0,55.2,0z
	 M55.2,1.9c2.2,0,4,1.8,4,4v29.1c0,2.2-1.8,4-4,4H5.8c-2.2,0-4-1.8-4-4V5.9c0-2.2,1.8-4,4-4L55.2,1.9"/>
<rect x="1.1" y="9.1" width="58.9" height="1.9"/>
<rect x="5.6" y="14.5" width="1.9" height="19.9"/>
</svg>
