<?xml version="1.0" encoding="utf-8"?>
<!-- Generator: Adobe Illustrator 19.2.1, SVG Export Plug-In . SVG Version: 6.00 Build 0)  -->
<svg version="1.1" id="Layer_1" xmlns="http://www.w3.org/2000/svg" xmlns:xlink="http://www.w3.org/1999/xlink" x="0px" y="0px"
	 viewBox="0 0 279 106" style="enable-background:new 0 0 279 106;" xml:space="preserve">
<style type="text/css">
	.st0{fill:#006EA6;}
	.st1{fill:#83B8D7;}
	.st2{fill:#B3D3A2;}
	.st3{fill:#26A135;}
</style>
<g>
	<path class="st0" d="M49.8,19.8h-4.1v23.1c0,4.9,2.4,7,6.8,7h2.9V46h-2.9c-1.9,0-2.7-1.2-2.7-3V30.2h5.6v-3.6h-5.6V19.8z
		 M41.9,40.8c0-6.4-5.2-8.1-10.1-9.2l-1.7-0.4c-4.4-1-8.2-1.8-8.2-5c0-4.7,4.8-5.2,6.8-5.2c4.5,0,7.1,2.2,7.6,6.3l0,0.1h4.3l0-0.2
		c-0.2-6.4-4.5-10.1-11.7-10.1c-5.7,0-11.5,2.9-11.5,9.3c0,5.7,4.8,7.3,10.2,8.4l1.1,0.2c4.5,1,8.8,1.9,8.8,5.7
		c0,4.8-4.9,5.5-7.8,5.5c-2.4,0-4.7-0.6-6.2-1.8c-1.8-1.3-2.7-3.2-2.7-5.6v-0.2h-4.3V39c0,8.3,6.8,11.2,13.1,11.2
		C35.7,50.3,41.9,47.3,41.9,40.8L41.9,40.8z M78.5,46.4c-1,0-1-0.5-1-2.4V32.4c0-4.3-2.8-6.4-8.7-6.4c-3.5,0-9.5,1-9.8,7.7l0,0.2h4
		l0-0.2c0.2-2.8,1.9-4.1,5.5-4.1c3.3,0,4.9,1.1,4.9,3.6c0,2.1-2.1,2.3-5,2.8c-0.8,0.1-1.7,0.2-2.5,0.4c-3.9,0.8-7.8,1.9-7.8,7.1
		c0,4.1,2.9,6.5,7.7,6.5c3.2,0,5.8-1.1,7.8-3.3c0.2,2.7,1.8,3.3,3.3,3.3c1.2,0,2-0.2,2.8-0.7l0.1,0v-3.2l-0.2,0.1
		C79.1,46.4,78.7,46.4,78.5,46.4L78.5,46.4z M73.4,41.5c0,1.9-1.8,4.9-6.8,4.9c-1.3,0-4.2-0.3-4.2-3.2c0-2.7,2.2-3.5,4.4-3.9
		c0.7-0.1,1.4-0.2,2.1-0.3c1.7-0.2,3.4-0.4,4.5-1.1C73.4,37.9,73.4,41.5,73.4,41.5z M98.4,34.1v15.5h4.1v-15c0-5.7-2.6-8.5-8-8.5
		c-3.3,0-5.7,1.3-7.3,3.8v-3.3h-3.8v23h4.1V36.6c0-4.3,2.4-6.9,6.5-6.9C96.7,29.7,98.4,31.4,98.4,34.1L98.4,34.1z M116.9,50.1
		c3.3,0,5.9-1.2,7.1-3.3v2.8h4.1V18H124v11.4c-1.7-2.4-4.8-3.3-7.2-3.3c-6.4,0-10.5,4.7-10.5,11.9c0,3.3,0.9,6.3,2.6,8.5
		C110.8,48.8,113.5,50.1,116.9,50.1L116.9,50.1z M117.2,29.7c6.5,0,7,6.4,7,8.4c0,4.1-1.8,8.4-6.7,8.4c-4.7,0-6.8-4.1-6.8-8.2
		C110.5,35.7,111.2,29.7,117.2,29.7L117.2,29.7z M142.5,36c-0.8,0.1-1.7,0.2-2.5,0.4c-3.9,0.8-7.8,1.9-7.8,7.1
		c0,4.1,2.9,6.5,7.6,6.5c3.2,0,5.8-1.1,7.8-3.3c0.2,2.7,1.8,3.3,3.3,3.3c1.2,0,2.1-0.2,2.8-0.7l0.1,0v-3.2l-0.2,0.1
		c-0.5,0.2-0.8,0.2-1.1,0.2c-1,0-1-0.5-1-2.4V32.5c0-4.3-2.8-6.4-8.6-6.4c-3.6,0-9.5,1-9.8,7.7l0,0.2h4.1l0-0.2
		c0.1-2.8,1.9-4.1,5.5-4.1c3.3,0,4.9,1.2,4.9,3.6C147.4,35.4,145.4,35.6,142.5,36L142.5,36z M147.4,38C147.4,38,147.4,38,147.4,38z
		 M147.4,41.5c0,1.9-1.8,4.9-6.7,4.9c-1.3,0-4.2-0.3-4.2-3.1c0-2.7,2.2-3.5,4.4-3.9c0.7-0.1,1.4-0.2,2.1-0.3
		c1.7-0.2,3.4-0.4,4.5-1.1L147.4,41.5L147.4,41.5z M161.1,31v-4.4h-3.8v23h4V39.3c0-6.1,2.6-9,8-9h0.2v-4.3l-0.2,0
		C165.6,26,163.1,27.5,161.1,31z M187.9,18v11.4c-1.7-2.4-4.8-3.3-7.2-3.3c-6.4,0-10.5,4.7-10.5,11.9c0,3.3,0.9,6.3,2.7,8.5
		c1.9,2.4,4.6,3.6,7.9,3.6c3.3,0,5.9-1.2,7.1-3.3v2.8h4.1V18H187.9z M181.2,46.5c-4.7,0-6.8-4.1-6.8-8.2c0-2.6,0.6-8.6,6.6-8.6
		c6.4,0,6.9,6.4,6.9,8.4C188,42.2,186.2,46.5,181.2,46.5L181.2,46.5z M24.8,81.6c-0.4,5.5-3.8,8.9-8.8,8.9c-3.5,0-6.2-1.3-8-3.8
		c-1.6-2.2-2.5-5.4-2.5-9.1c0-3.4,0.9-6.5,2.5-8.7c1.8-2.5,4.6-3.8,8-3.8c4.6,0,7.8,2.4,8.6,6.5l0,0.1H29l0-0.2
		c-0.5-3.2-2-5.9-4.4-7.7c-2.3-1.7-5.3-2.6-8.6-2.6c-4.6,0-8.5,1.7-11.2,4.9C2.3,69.1,1,73.3,1,77.9C1,88,6.6,94.3,15.6,94.3
		c3.9,0,7.2-1.2,9.5-3.4c2.3-2.2,3.8-5.4,4.1-9.3l0-0.2h-4.5L24.8,81.6L24.8,81.6z M44.3,70.1c-2.4,0-5.6,0.9-7.1,3.5V62h-4.1v31.6
		h4.1v-13c0-4.3,2.5-6.9,6.5-6.9c2.7,0,4.4,1.7,4.4,4.4v15.5h4.1V78.5C52.3,72.9,49.7,70.1,44.3,70.1L44.3,70.1z M76.1,90.5
		c-1,0-1-0.5-1-2.4V76.5c0-4.3-2.8-6.4-8.7-6.4c-3.5,0-9.5,1-9.8,7.7V78h4.1l0-0.2c0.1-2.8,1.9-4.1,5.5-4.1c3.3,0,4.9,1.1,4.9,3.6
		c0,2.1-2.1,2.4-4.9,2.8c-0.8,0.1-1.6,0.2-2.5,0.4c-4,0.8-7.8,1.9-7.8,7.1c0,4.1,2.9,6.5,7.7,6.5c3.2,0,5.8-1.1,7.8-3.3
		c0.2,2.7,1.9,3.3,3.3,3.3c1.2,0,2-0.2,2.8-0.6l0.1,0v-3.2l-0.2,0.1C76.7,90.5,76.4,90.5,76.1,90.5L76.1,90.5z M71.1,85.5
		c0,1.9-1.8,5-6.7,5c-1.3,0-4.2-0.3-4.2-3.2c0-2.7,2.2-3.5,4.4-3.9c0.7-0.1,1.4-0.2,2-0.3c1.8-0.2,3.4-0.4,4.5-1.1L71.1,85.5
		L71.1,85.5z M187.9,73.4c-1.7-2.4-4.8-3.3-7.2-3.3c-6.4,0-10.5,4.7-10.5,11.9c0,3.3,0.9,6.3,2.7,8.5c1.9,2.4,4.6,3.6,7.9,3.6
		c3.3,0,5.9-1.2,7.1-3.3v2.8h4.1V62h-4.1V73.4z M181.2,90.5c-4.7,0-6.8-4.1-6.8-8.2c0-2.6,0.6-8.6,6.6-8.6c6.4,0,6.9,6.5,6.9,8.4
		C188,86.2,186.2,90.5,181.2,90.5L181.2,90.5z M119.2,70.1c-6.3,0-10.8,5-10.8,11.9c0.2,7.7,4.3,12.1,11,12.1c5.2,0,8.7-2.8,9.8-7.6
		h-4c-0.7,2.6-2.7,4-5.6,4c-2.1,0-3.8-0.7-5-1.9c-1.2-1.3-1.9-3.1-1.8-5.2h16.9l0-0.2c0.2-4.1-1.1-8-3.4-10.3
		C124.4,71,122.1,70.1,119.2,70.1L119.2,70.1z M112.7,79.8c0.3-3.1,2.3-6.1,6.3-6.1c3.4,0,6.1,2.6,6.3,6.1L112.7,79.8L112.7,79.8z
		 M157,70.1c-6.3,0-10.8,5-10.8,11.9c0.2,7.7,4.2,12.1,11,12.1c5.2,0,8.7-2.8,9.8-7.6h-4c-0.7,2.6-2.7,4-5.6,4c-2.1,0-3.8-0.7-5-1.9
		c-1.2-1.3-1.9-3.1-1.9-5.2h16.9l0-0.2c0.2-4.1-1.1-8-3.4-10.3C162.3,71,159.9,70.1,157,70.1L157,70.1z M150.5,79.8
		c0.3-3.1,2.4-6.1,6.3-6.1c3.4,0,6.1,2.6,6.3,6.1L150.5,79.8L150.5,79.8z M84.9,75v-4.4H81v23h4.1V83.4c0-6.1,2.6-9,8-9h0.2v-4.3
		l-0.2,0C89.3,70,86.7,71.5,84.9,75z M137.4,75v-4.4h-3.8v23h4.1V83.4c0-6.1,2.5-9,8-9h0.2v-4.3h-0.2C141.8,70,139.3,71.5,137.4,75z
		 M100.7,63.8h-4.1v23.1c0,4.9,2.5,7,6.8,7h2.9V90h-2.9c-1.9,0-2.7-1.2-2.7-3V74.2h5.6v-3.6h-5.6L100.7,63.8L100.7,63.8z"/>
</g>
<path class="st1" d="M230.8,102.2c-2.8,1.6-5.3,2.6-7.9,2.6c-6.8,0-12.5-5.6-12.9-12.3l13.3-7.9l20.7,9.3L230.8,102.2L230.8,102.2z"
	/>
<path class="st2" d="M238.7,68.1l-9.9-4.4c-4.4-2-8.6-3.6-8.6-8.5c0-2.5,0.8-3.8,2-5.2l20.9,9.2l-5.2,3c-1.4,0.9-2.4,1.6-2.4,2.8
	C235.5,66.3,236.8,67.3,238.7,68.1"/>
<path class="st1" d="M248.4,22.5l-10.1,6.2c-0.9,0.5-2.1,1.4-2.1,2.8c0,1.5,2.3,2.7,4.4,3.7l-12.7-5.6c-3.7-1.6-7.5-3.5-7.5-8
	c0-1.9,0.5-3.4,1.4-4.7L249.3,0c3.3,1.9,6.5,5.6,6.5,10.7C255.7,16.1,253,19.7,248.4,22.5"/>
<path class="st2" d="M270,42.3l-2.5,1.4l-20.9-9.2l24.4-14.7c3.3,1.9,6.5,5.6,6.5,10.7C277.3,35.9,274.7,39.7,270,42.3"/>
<path class="st1" d="M252.3,60.1l12.4,5.4c4.6,2.1,6.1,4.5,6.1,7.6c0,1.8-1,3.5-2.4,4.7l-20.8-9.3l3.5-2c3-1.6,4-2.6,4-3.7
	C255,61.8,254.3,61,252.3,60.1"/>
<path class="st3" d="M274.4,105.8c-5.3-4.1-10.9-6.8-17.7-9.9L225,82c-7.9-3.5-13.2-8.3-13.2-16.2c0-7.7,3.7-11.5,8.6-14.5l1.8-1.1
	c-1.2,1.3-2,2.6-2,5.2c0,4.9,4.2,6.5,8.6,8.5L265.5,80c6.4,2.7,12.2,7.5,12.2,15.5C277.8,99.9,276.1,103.9,274.4,105.8"/>
<path class="st0" d="M270.6,76.5l-2.3,1.4c1.4-1.2,2.4-3,2.4-4.7c0-3.1-1.4-5.5-6.1-7.6l-39.3-17.3c-7.9-3.5-12.9-8-12.9-15.9
	c0-7.3,3.6-12,9.4-15.5c-0.9,1.3-1.4,2.8-1.4,4.7c0,4.5,3.7,6.4,7.5,8l38.2,16.8c6.9,3.1,12.6,7.7,12.6,16.2
	C278.7,69.2,275.6,73.4,270.6,76.5"/>
</svg>
