<svg version="1.1" id="Layer_1" xmlns="http://www.w3.org/2000/svg" width="16" height="12.031" xmlns:xlink="http://www.w3.org/1999/xlink" x="0px" y="0px"
	 viewBox="0 0 12 9" style="enable-background:new 0 0 12 9;" xml:space="preserve">
<style type="text/css">
	.st0{fill:#CCCCCC;}
</style>
<path id="check_transparent_copy_23" class="st0" d="M4.8,8.8C4.6,9,4.3,9,4.1,8.8l0,0L4,8.7l0,0L3.8,8.5L3.2,7.9l0,0L0.1,4.8
	c-0.2-0.2-0.2-0.5,0-0.6l1-1C1.3,3,1.5,3,1.7,3.1l0,0l2.7,2.8l5.8-5.8c0.2-0.2,0.5-0.2,0.6,0l0,0l1,1c0.2,0.2,0.2,0.5,0,0.6L4.8,8.8
	z"/>
</svg>
