<?xml version="1.0" encoding="utf-8"?>
<!-- Generator: Adobe Illustrator 19.2.1, SVG Export Plug-In . SVG Version: 6.00 Build 0)  -->
<svg version="1.1" id="Layer_1" xmlns="http://www.w3.org/2000/svg" xmlns:xlink="http://www.w3.org/1999/xlink" x="0px" y="0px"
	 viewBox="0 0 16.2 12.2" style="enable-background:new 0 0 16.2 12.2;" xml:space="preserve">
<style type="text/css">
	.st0{fill:#919191;}
</style>
<path id="ico_correct_tick" class="st0" d="M6.6,12c-0.2,0.2-0.6,0.2-0.8,0c0,0,0,0,0,0l-0.2-0.2l0,0l-0.2-0.2l-0.9-0.9c0,0,0,0,0,0
	L0.4,6.6C0.1,6.3,0.1,6,0.4,5.7l1.3-1.3c0.2-0.2,0.6-0.2,0.8,0c0,0,0,0,0,0l3.7,3.7l7.7-7.8c0.2-0.2,0.6-0.2,0.8,0c0,0,0,0,0,0
	L16,1.7c0.2,0.2,0.2,0.6,0,0.9L6.6,12z"/>
</svg>
