<?xml version="1.0" encoding="utf-8"?>
<!-- Generator: Adobe Illustrator 19.2.1, SVG Export Plug-In . SVG Version: 6.00 Build 0)  -->
<svg version="1.1" id="Layer_1" xmlns="http://www.w3.org/2000/svg" xmlns:xlink="http://www.w3.org/1999/xlink" x="0px" y="0px"
	 viewBox="0 0 55 56" style="enable-background:new 0 0 55 56;" xml:space="preserve">
<style type="text/css">
	.st0{fill:none;enable-background:new    ;}
	.st1{clip-path:url(#SVGID_2_);}
</style>
<path class="st0" d="z"/>
<g>
	<path d="M22.2,30.5c-0.1-0.5-0.5-0.8-1-0.8c-0.5,0.1-0.8,0.5-0.8,1c1,7-1.6,14.2-6.8,19c-0.4,0.3-0.4,0.9,0,1.3
		c0.2,0.2,0.4,0.3,0.7,0.3c0.2,0,0.4-0.1,0.6-0.2C20.5,45.8,23.2,38.1,22.2,30.5L22.2,30.5z M22.2,30.5"/>
	<path d="M9.1,31.5c0,0,0-0.1,0-0.1c-0.2-0.9-0.3-1.9-0.3-2.8c0-0.5-0.4-0.9-0.9-0.9c-0.5,0-0.9,0.4-0.9,0.9c0,1.1,0.2,2.2,0.4,3.2
		c0,0,0,0.1,0,0.1c0.6,3.1-0.6,6.4-3,8.5c-0.4,0.3-0.4,0.9-0.1,1.3c0.2,0.2,0.4,0.3,0.7,0.3c0.2,0,0.4-0.1,0.6-0.2
		C8.5,39.3,9.9,35.4,9.1,31.5L9.1,31.5z M9.1,31.5"/>
	<g>
		<defs>
			<rect id="SVGID_1_" x="0.4" y="0.7" width="54.2" height="54.3"/>
		</defs>
		<clipPath id="SVGID_2_">
			<use xlink:href="#SVGID_1_"  style="overflow:visible;"/>
		</clipPath>
		<path class="st1" d="M14.2,38.7c-0.5-0.2-1,0-1.2,0.5c-1,2.5-2.6,4.7-4.6,6.4C8,45.9,8,46.5,8.3,46.9c0.2,0.2,0.4,0.3,0.7,0.3
			c0.2,0,0.4-0.1,0.6-0.2c2.3-1.9,4.1-4.4,5.2-7.1C14.9,39.4,14.7,38.9,14.2,38.7L14.2,38.7z M14.2,38.7"/>
		<path class="st1" d="M5.8,13.1c0.2,0.1,0.3,0.2,0.5,0.2c0.3,0,0.6-0.1,0.7-0.4c3.7-5.1,9.2-8.6,15.4-9.9C28,2,33.6,2.7,38.6,5.1
			c0.4,0.2,1,0,1.2-0.4c0.2-0.4,0-1-0.4-1.2C34,0.9,28,0.1,22.1,1.3C15.5,2.6,9.6,6.4,5.6,11.9C5.3,12.3,5.4,12.8,5.8,13.1L5.8,13.1
			z M5.8,13.1"/>
		<path class="st1" d="M2.7,32.8C2.7,32.8,2.7,32.8,2.7,32.8C1.6,27.1,2.4,21.4,5,16.3c0.2-0.4,0.1-1-0.4-1.2
			c-0.4-0.2-1-0.1-1.2,0.4C0.6,21-0.3,27.1,0.9,33.2c0,0,0,0.1,0,0.1c0.1,0.4,0.2,0.7,0.2,1.1C1.3,34.7,1.7,35,2.1,35
			c0.1,0,0.1,0,0.2,0c0.5-0.1,0.8-0.6,0.7-1.1C2.9,33.5,2.8,33.2,2.7,32.8L2.7,32.8z M2.7,32.8"/>
	</g>
	<path d="M23.4,7.7C15.1,9.4,8.7,15.9,7.2,24.3c-0.1,0.5,0.2,1,0.7,1c0.5,0.1,1-0.2,1-0.7C10.4,17,16.1,11,23.8,9.5
		c10.1-2,20,4.5,22.1,14.7c0,0,0,0.1,0,0.1c0.2,0.8,0.3,1.6,0.4,2.4c0.1,0.4,0.5,0.8,0.9,0.8c0,0,0.1,0,0.1,0c0.5-0.1,0.8-0.5,0.8-1
		c-0.1-0.8-0.3-1.7-0.5-2.6c0,0,0-0.1,0-0.1C45.3,12.6,34.5,5.5,23.4,7.7L23.4,7.7z M23.4,7.7"/>
	<path d="M34.8,26.3c-0.4-2-1.5-3.6-3.2-4.7c-1.7-1.1-3.6-1.5-5.6-1.1c-2.9,0.6-5.2,2.9-5.8,5.8c-0.1,0.5,0.2,1,0.7,1.1
		c0.5,0.1,1-0.2,1.1-0.7c0.5-2.2,2.2-3.9,4.4-4.4c1.5-0.3,3,0,4.2,0.8c1.2,0.8,2.1,2.1,2.4,3.5c0,0,0,0.1,0,0.1
		c0.5,2.3,0.7,4.6,0.7,6.9c0,0.5,0.4,0.9,0.9,0.9h0c0.5,0,0.9-0.4,0.9-0.9c0-2.4-0.2-4.8-0.7-7.1C34.8,26.4,34.8,26.4,34.8,26.3
		L34.8,26.3z M34.8,26.3"/>
	<path d="M28.4,27.6c-0.1-0.5-0.6-0.8-1.1-0.7c-0.5,0.1-0.8,0.6-0.7,1.1c1.8,8.8-0.6,17.7-6.6,24.5c-0.3,0.4-0.3,0.9,0.1,1.3
		c0.2,0.1,0.4,0.2,0.6,0.2c0.3,0,0.5-0.1,0.7-0.3C27.7,46.5,30.3,37,28.4,27.6L28.4,27.6z M28.4,27.6"/>
	<path d="M54,22.5C54,22.4,54,22.4,54,22.5c-1.4-6.9-5.3-12.8-11-16.8c-0.4-0.3-1-0.2-1.3,0.2c-0.3,0.4-0.2,1,0.2,1.3
		c5.3,3.7,9,9.3,10.2,15.7c0,0,0,0,0,0.1c0.4,1.8,0.5,3.6,0.5,5.4c0,0.5,0.4,0.9,0.9,0.9h0c0.5,0,0.9-0.4,0.9-0.9
		C54.6,26.4,54.4,24.4,54,22.5L54,22.5z M54,22.5"/>
	<path d="M41.2,25.1c-0.7-3.7-2.9-6.8-6-8.9c-3.1-2.1-6.8-2.8-10.5-2.1c-7.6,1.5-12.5,8.9-11,16.5c0,0.1,0,0.1,0,0.2
		c0.3,1.5,0.4,3,0.2,4.5c-0.1,0.5,0.3,0.9,0.8,1c0.5,0,0.9-0.3,1-0.8c0.2-1.7,0.1-3.5-0.2-5.3c0-0.1,0-0.1,0-0.2
		c-1.2-6.5,3-12.9,9.6-14.2c3.2-0.6,6.4,0,9.2,1.8c2.7,1.8,4.5,4.5,5.2,7.7c0,0,0,0,0,0.1c1,5,1.1,10,0.3,15c-0.1,0.5,0.3,1,0.7,1
		c0,0,0.1,0,0.1,0c0.4,0,0.8-0.3,0.9-0.8C42.3,35.5,42.2,30.3,41.2,25.1C41.2,25.1,41.2,25.1,41.2,25.1L41.2,25.1z M41.2,25.1"/>
	<path d="M47.5,29.7c-0.5,0-0.9,0.5-0.8,1C47,35.8,46.5,41,45.2,46c-0.1,0.5,0.2,1,0.6,1.1c0.1,0,0.2,0,0.2,0c0.4,0,0.8-0.3,0.9-0.7
		c1.4-5.2,1.9-10.6,1.6-15.9C48.5,30,48,29.7,47.5,29.7L47.5,29.7z M47.5,29.7"/>
	<path d="M39.9,43.7c-0.5-0.1-1,0.2-1.1,0.6c-0.7,2.6-1.6,5.1-2.8,7.5c-0.2,0.4,0,1,0.4,1.2c0.1,0.1,0.3,0.1,0.4,0.1
		c0.3,0,0.7-0.2,0.8-0.5c1.2-2.5,2.2-5.1,2.9-7.8C40.7,44.4,40.4,43.9,39.9,43.7L39.9,43.7z M39.9,43.7"/>
	<path d="M34.5,36.8c-0.5-0.1-0.9,0.3-1,0.8c-0.6,5.6-2.7,11.1-5.9,15.8c-0.3,0.4-0.2,1,0.2,1.3c0.2,0.1,0.3,0.2,0.5,0.2
		c0.3,0,0.6-0.1,0.7-0.4c3.4-5,5.5-10.7,6.2-16.7C35.3,37.3,35,36.9,34.5,36.8L34.5,36.8z M34.5,36.8"/>
</g>
</svg>
